<?xml version="1.0" encoding="utf-8" standalone="no"?>
<!DOCTYPE svg PUBLIC "-//W3C//DTD SVG 1.1//EN"
  "http://www.w3.org/Graphics/SVG/1.1/DTD/svg11.dtd">
<svg xmlns:xlink="http://www.w3.org/1999/xlink" width="720pt" height="1296pt" viewBox="0 0 720 1296" xmlns="http://www.w3.org/2000/svg" version="1.1">
 <metadata>
  <rdf:RDF xmlns:dc="http://purl.org/dc/elements/1.1/" xmlns:cc="http://creativecommons.org/ns#" xmlns:rdf="http://www.w3.org/1999/02/22-rdf-syntax-ns#">
   <cc:Work>
    <dc:type rdf:resource="http://purl.org/dc/dcmitype/StillImage"/>
    <dc:date>2025-09-17T08:27:25.548106</dc:date>
    <dc:format>image/svg+xml</dc:format>
    <dc:creator>
     <cc:Agent>
      <dc:title>Matplotlib v3.10.0, https://matplotlib.org/</dc:title>
     </cc:Agent>
    </dc:creator>
   </cc:Work>
  </rdf:RDF>
 </metadata>
 <defs>
  <style type="text/css">*{stroke-linejoin: round; stroke-linecap: butt}</style>
 </defs>
 <g id="figure_1">
  <g id="patch_1">
   <path d="M 0 1296 
L 720 1296 
L 720 0 
L 0 0 
z
" style="fill: #ffffff"/>
  </g>
  <g id="axes_1">
   <g id="patch_2">
    <path d="M 48.22 197.12 
L 709.2 197.12 
L 709.2 26.88 
L 48.22 26.88 
z
" style="fill: #ffffff"/>
   </g>
   <g id="matplotlib.axis_1">
    <g id="xtick_1">
     <g id="line2d_1">
      <defs>
       <path id="mca38c56f87" d="M 0 0 
L 0 3.5 
" style="stroke: #000000; stroke-width: 0.8"/>
      </defs>
      <g>
       <use xlink:href="#mca38c56f87" x="78.264545" y="197.12" style="stroke: #000000; stroke-width: 0.8"/>
      </g>
     </g>
     <g id="text_1">
      <!-- 0 -->
      <g transform="translate(75.083295 211.718437) scale(0.1 -0.1)">
       <defs>
        <path id="DejaVuSans-30" d="M 2034 4250 
Q 1547 4250 1301 3770 
Q 1056 3291 1056 2328 
Q 1056 1369 1301 889 
Q 1547 409 2034 409 
Q 2525 409 2770 889 
Q 3016 1369 3016 2328 
Q 3016 3291 2770 3770 
Q 2525 4250 2034 4250 
z
M 2034 4750 
Q 2819 4750 3233 4129 
Q 3647 3509 3647 2328 
Q 3647 1150 3233 529 
Q 2819 -91 2034 -91 
Q 1250 -91 836 529 
Q 422 1150 422 2328 
Q 422 3509 836 4129 
Q 1250 4750 2034 4750 
z
" transform="scale(0.015625)"/>
       </defs>
       <use xlink:href="#DejaVuSans-30"/>
      </g>
     </g>
    </g>
    <g id="xtick_2">
     <g id="line2d_2">
      <g>
       <use xlink:href="#mca38c56f87" x="155.301841" y="197.12" style="stroke: #000000; stroke-width: 0.8"/>
      </g>
     </g>
     <g id="text_2">
      <!-- 5 -->
      <g transform="translate(152.120591 211.718437) scale(0.1 -0.1)">
       <defs>
        <path id="DejaVuSans-35" d="M 691 4666 
L 3169 4666 
L 3169 4134 
L 1269 4134 
L 1269 2991 
Q 1406 3038 1543 3061 
Q 1681 3084 1819 3084 
Q 2600 3084 3056 2656 
Q 3513 2228 3513 1497 
Q 3513 744 3044 326 
Q 2575 -91 1722 -91 
Q 1428 -91 1123 -41 
Q 819 9 494 109 
L 494 744 
Q 775 591 1075 516 
Q 1375 441 1709 441 
Q 2250 441 2565 725 
Q 2881 1009 2881 1497 
Q 2881 1984 2565 2268 
Q 2250 2553 1709 2553 
Q 1456 2553 1204 2497 
Q 953 2441 691 2322 
L 691 4666 
z
" transform="scale(0.015625)"/>
       </defs>
       <use xlink:href="#DejaVuSans-35"/>
      </g>
     </g>
    </g>
    <g id="xtick_3">
     <g id="line2d_3">
      <g>
       <use xlink:href="#mca38c56f87" x="232.339138" y="197.12" style="stroke: #000000; stroke-width: 0.8"/>
      </g>
     </g>
     <g id="text_3">
      <!-- 10 -->
      <g transform="translate(225.976638 211.718437) scale(0.1 -0.1)">
       <defs>
        <path id="DejaVuSans-31" d="M 794 531 
L 1825 531 
L 1825 4091 
L 703 3866 
L 703 4441 
L 1819 4666 
L 2450 4666 
L 2450 531 
L 3481 531 
L 3481 0 
L 794 0 
L 794 531 
z
" transform="scale(0.015625)"/>
       </defs>
       <use xlink:href="#DejaVuSans-31"/>
       <use xlink:href="#DejaVuSans-30" transform="translate(63.623047 0)"/>
      </g>
     </g>
    </g>
    <g id="xtick_4">
     <g id="line2d_4">
      <g>
       <use xlink:href="#mca38c56f87" x="309.376434" y="197.12" style="stroke: #000000; stroke-width: 0.8"/>
      </g>
     </g>
     <g id="text_4">
      <!-- 15 -->
      <g transform="translate(303.013934 211.718437) scale(0.1 -0.1)">
       <use xlink:href="#DejaVuSans-31"/>
       <use xlink:href="#DejaVuSans-35" transform="translate(63.623047 0)"/>
      </g>
     </g>
    </g>
    <g id="xtick_5">
     <g id="line2d_5">
      <g>
       <use xlink:href="#mca38c56f87" x="386.41373" y="197.12" style="stroke: #000000; stroke-width: 0.8"/>
      </g>
     </g>
     <g id="text_5">
      <!-- 20 -->
      <g transform="translate(380.05123 211.718437) scale(0.1 -0.1)">
       <defs>
        <path id="DejaVuSans-32" d="M 1228 531 
L 3431 531 
L 3431 0 
L 469 0 
L 469 531 
Q 828 903 1448 1529 
Q 2069 2156 2228 2338 
Q 2531 2678 2651 2914 
Q 2772 3150 2772 3378 
Q 2772 3750 2511 3984 
Q 2250 4219 1831 4219 
Q 1534 4219 1204 4116 
Q 875 4013 500 3803 
L 500 4441 
Q 881 4594 1212 4672 
Q 1544 4750 1819 4750 
Q 2544 4750 2975 4387 
Q 3406 4025 3406 3419 
Q 3406 3131 3298 2873 
Q 3191 2616 2906 2266 
Q 2828 2175 2409 1742 
Q 1991 1309 1228 531 
z
" transform="scale(0.015625)"/>
       </defs>
       <use xlink:href="#DejaVuSans-32"/>
       <use xlink:href="#DejaVuSans-30" transform="translate(63.623047 0)"/>
      </g>
     </g>
    </g>
    <g id="xtick_6">
     <g id="line2d_6">
      <g>
       <use xlink:href="#mca38c56f87" x="463.451026" y="197.12" style="stroke: #000000; stroke-width: 0.8"/>
      </g>
     </g>
     <g id="text_6">
      <!-- 25 -->
      <g transform="translate(457.088526 211.718437) scale(0.1 -0.1)">
       <use xlink:href="#DejaVuSans-32"/>
       <use xlink:href="#DejaVuSans-35" transform="translate(63.623047 0)"/>
      </g>
     </g>
    </g>
    <g id="xtick_7">
     <g id="line2d_7">
      <g>
       <use xlink:href="#mca38c56f87" x="540.488322" y="197.12" style="stroke: #000000; stroke-width: 0.8"/>
      </g>
     </g>
     <g id="text_7">
      <!-- 30 -->
      <g transform="translate(534.125822 211.718437) scale(0.1 -0.1)">
       <defs>
        <path id="DejaVuSans-33" d="M 2597 2516 
Q 3050 2419 3304 2112 
Q 3559 1806 3559 1356 
Q 3559 666 3084 287 
Q 2609 -91 1734 -91 
Q 1441 -91 1130 -33 
Q 819 25 488 141 
L 488 750 
Q 750 597 1062 519 
Q 1375 441 1716 441 
Q 2309 441 2620 675 
Q 2931 909 2931 1356 
Q 2931 1769 2642 2001 
Q 2353 2234 1838 2234 
L 1294 2234 
L 1294 2753 
L 1863 2753 
Q 2328 2753 2575 2939 
Q 2822 3125 2822 3475 
Q 2822 3834 2567 4026 
Q 2313 4219 1838 4219 
Q 1578 4219 1281 4162 
Q 984 4106 628 3988 
L 628 4550 
Q 988 4650 1302 4700 
Q 1616 4750 1894 4750 
Q 2613 4750 3031 4423 
Q 3450 4097 3450 3541 
Q 3450 3153 3228 2886 
Q 3006 2619 2597 2516 
z
" transform="scale(0.015625)"/>
       </defs>
       <use xlink:href="#DejaVuSans-33"/>
       <use xlink:href="#DejaVuSans-30" transform="translate(63.623047 0)"/>
      </g>
     </g>
    </g>
    <g id="xtick_8">
     <g id="line2d_8">
      <g>
       <use xlink:href="#mca38c56f87" x="617.525618" y="197.12" style="stroke: #000000; stroke-width: 0.8"/>
      </g>
     </g>
     <g id="text_8">
      <!-- 35 -->
      <g transform="translate(611.163118 211.718437) scale(0.1 -0.1)">
       <use xlink:href="#DejaVuSans-33"/>
       <use xlink:href="#DejaVuSans-35" transform="translate(63.623047 0)"/>
      </g>
     </g>
    </g>
    <g id="xtick_9">
     <g id="line2d_9">
      <g>
       <use xlink:href="#mca38c56f87" x="694.562914" y="197.12" style="stroke: #000000; stroke-width: 0.8"/>
      </g>
     </g>
     <g id="text_9">
      <!-- 40 -->
      <g transform="translate(688.200414 211.718437) scale(0.1 -0.1)">
       <defs>
        <path id="DejaVuSans-34" d="M 2419 4116 
L 825 1625 
L 2419 1625 
L 2419 4116 
z
M 2253 4666 
L 3047 4666 
L 3047 1625 
L 3713 1625 
L 3713 1100 
L 3047 1100 
L 3047 0 
L 2419 0 
L 2419 1100 
L 313 1100 
L 313 1709 
L 2253 4666 
z
" transform="scale(0.015625)"/>
       </defs>
       <use xlink:href="#DejaVuSans-34"/>
       <use xlink:href="#DejaVuSans-30" transform="translate(63.623047 0)"/>
      </g>
     </g>
    </g>
   </g>
   <g id="matplotlib.axis_2">
    <g id="ytick_1">
     <g id="line2d_10">
      <defs>
       <path id="m73bb124612" d="M 0 0 
L -3.5 0 
" style="stroke: #000000; stroke-width: 0.8"/>
      </defs>
      <g>
       <use xlink:href="#m73bb124612" x="48.22" y="196.77378" style="stroke: #000000; stroke-width: 0.8"/>
      </g>
     </g>
     <g id="text_10">
      <!-- −0.6 -->
      <g transform="translate(16.937187 200.572999) scale(0.1 -0.1)">
       <defs>
        <path id="DejaVuSans-2212" d="M 678 2272 
L 4684 2272 
L 4684 1741 
L 678 1741 
L 678 2272 
z
" transform="scale(0.015625)"/>
        <path id="DejaVuSans-2e" d="M 684 794 
L 1344 794 
L 1344 0 
L 684 0 
L 684 794 
z
" transform="scale(0.015625)"/>
        <path id="DejaVuSans-36" d="M 2113 2584 
Q 1688 2584 1439 2293 
Q 1191 2003 1191 1497 
Q 1191 994 1439 701 
Q 1688 409 2113 409 
Q 2538 409 2786 701 
Q 3034 994 3034 1497 
Q 3034 2003 2786 2293 
Q 2538 2584 2113 2584 
z
M 3366 4563 
L 3366 3988 
Q 3128 4100 2886 4159 
Q 2644 4219 2406 4219 
Q 1781 4219 1451 3797 
Q 1122 3375 1075 2522 
Q 1259 2794 1537 2939 
Q 1816 3084 2150 3084 
Q 2853 3084 3261 2657 
Q 3669 2231 3669 1497 
Q 3669 778 3244 343 
Q 2819 -91 2113 -91 
Q 1303 -91 875 529 
Q 447 1150 447 2328 
Q 447 3434 972 4092 
Q 1497 4750 2381 4750 
Q 2619 4750 2861 4703 
Q 3103 4656 3366 4563 
z
" transform="scale(0.015625)"/>
       </defs>
       <use xlink:href="#DejaVuSans-2212"/>
       <use xlink:href="#DejaVuSans-30" transform="translate(83.789062 0)"/>
       <use xlink:href="#DejaVuSans-2e" transform="translate(147.412109 0)"/>
       <use xlink:href="#DejaVuSans-36" transform="translate(179.199219 0)"/>
      </g>
     </g>
    </g>
    <g id="ytick_2">
     <g id="line2d_11">
      <g>
       <use xlink:href="#m73bb124612" x="48.22" y="169.434124" style="stroke: #000000; stroke-width: 0.8"/>
      </g>
     </g>
     <g id="text_11">
      <!-- −0.4 -->
      <g transform="translate(16.937187 173.233342) scale(0.1 -0.1)">
       <use xlink:href="#DejaVuSans-2212"/>
       <use xlink:href="#DejaVuSans-30" transform="translate(83.789062 0)"/>
       <use xlink:href="#DejaVuSans-2e" transform="translate(147.412109 0)"/>
       <use xlink:href="#DejaVuSans-34" transform="translate(179.199219 0)"/>
      </g>
     </g>
    </g>
    <g id="ytick_3">
     <g id="line2d_12">
      <g>
       <use xlink:href="#m73bb124612" x="48.22" y="142.094467" style="stroke: #000000; stroke-width: 0.8"/>
      </g>
     </g>
     <g id="text_12">
      <!-- −0.2 -->
      <g transform="translate(16.937187 145.893686) scale(0.1 -0.1)">
       <use xlink:href="#DejaVuSans-2212"/>
       <use xlink:href="#DejaVuSans-30" transform="translate(83.789062 0)"/>
       <use xlink:href="#DejaVuSans-2e" transform="translate(147.412109 0)"/>
       <use xlink:href="#DejaVuSans-32" transform="translate(179.199219 0)"/>
      </g>
     </g>
    </g>
    <g id="ytick_4">
     <g id="line2d_13">
      <g>
       <use xlink:href="#m73bb124612" x="48.22" y="114.75481" style="stroke: #000000; stroke-width: 0.8"/>
      </g>
     </g>
     <g id="text_13">
      <!-- 0.0 -->
      <g transform="translate(25.316875 118.554029) scale(0.1 -0.1)">
       <use xlink:href="#DejaVuSans-30"/>
       <use xlink:href="#DejaVuSans-2e" transform="translate(63.623047 0)"/>
       <use xlink:href="#DejaVuSans-30" transform="translate(95.410156 0)"/>
      </g>
     </g>
    </g>
    <g id="ytick_5">
     <g id="line2d_14">
      <g>
       <use xlink:href="#m73bb124612" x="48.22" y="87.415154" style="stroke: #000000; stroke-width: 0.8"/>
      </g>
     </g>
     <g id="text_14">
      <!-- 0.2 -->
      <g transform="translate(25.316875 91.214373) scale(0.1 -0.1)">
       <use xlink:href="#DejaVuSans-30"/>
       <use xlink:href="#DejaVuSans-2e" transform="translate(63.623047 0)"/>
       <use xlink:href="#DejaVuSans-32" transform="translate(95.410156 0)"/>
      </g>
     </g>
    </g>
    <g id="ytick_6">
     <g id="line2d_15">
      <g>
       <use xlink:href="#m73bb124612" x="48.22" y="60.075497" style="stroke: #000000; stroke-width: 0.8"/>
      </g>
     </g>
     <g id="text_15">
      <!-- 0.4 -->
      <g transform="translate(25.316875 63.874716) scale(0.1 -0.1)">
       <use xlink:href="#DejaVuSans-30"/>
       <use xlink:href="#DejaVuSans-2e" transform="translate(63.623047 0)"/>
       <use xlink:href="#DejaVuSans-34" transform="translate(95.410156 0)"/>
      </g>
     </g>
    </g>
    <g id="ytick_7">
     <g id="line2d_16">
      <g>
       <use xlink:href="#m73bb124612" x="48.22" y="32.735841" style="stroke: #000000; stroke-width: 0.8"/>
      </g>
     </g>
     <g id="text_16">
      <!-- 0.6 -->
      <g transform="translate(25.316875 36.535059) scale(0.1 -0.1)">
       <use xlink:href="#DejaVuSans-30"/>
       <use xlink:href="#DejaVuSans-2e" transform="translate(63.623047 0)"/>
       <use xlink:href="#DejaVuSans-36" transform="translate(95.410156 0)"/>
      </g>
     </g>
    </g>
   </g>
   <g id="line2d_17">
    <path d="M 78.264545 106.079262 
L 93.672005 96.297969 
L 109.079464 98.847907 
L 124.486923 86.286414 
L 139.894382 88.79698 
L 155.301841 62.535396 
L 170.709301 61.098378 
L 186.11676 53.002181 
L 201.524219 58.02716 
L 216.931678 54.086644 
L 232.339138 54.503115 
L 247.746597 34.618182 
L 263.154056 50.296053 
L 278.561515 47.66105 
L 293.968974 66.479592 
L 309.376434 77.946217 
L 324.783893 80.502523 
L 340.191352 90.244052 
L 355.598811 106.204673 
L 371.00627 118.852913 
L 386.41373 108.931564 
L 401.821189 131.184399 
L 417.228648 146.360438 
L 432.636107 146.518055 
L 448.043566 156.963998 
L 463.451026 163.066012 
L 478.858485 175.167402 
L 494.265944 170.223942 
L 509.673403 180.855497 
L 525.080862 189.381818 
L 540.488322 173.493389 
L 555.895781 182.050813 
L 571.30324 185.392866 
L 586.710699 176.319581 
L 602.118159 173.705854 
L 617.525618 160.792989 
L 632.933077 157.814731 
L 648.340536 130.417985 
L 663.747995 126.245622 
L 679.155455 116.131577 
" clip-path="url(#p4f0969375c)" style="fill: none; stroke: #000000; stroke-width: 1.5; stroke-linecap: square"/>
   </g>
   <g id="line2d_18">
    <path d="M 78.264545 84.051095 
L 93.672005 80.046262 
L 109.079464 78.17734 
L 124.486923 78.444329 
L 139.894382 77.376374 
L 155.301841 79.512284 
L 170.709301 80.313251 
L 186.11676 80.58024 
L 201.524219 79.779273 
L 216.931678 80.713734 
L 232.339138 79.512284 
L 247.746597 81.381206 
L 263.154056 82.048678 
L 278.561515 82.449162 
L 293.968974 81.915184 
L 309.376434 81.247712 
L 324.783893 83.250128 
L 340.191352 82.983139 
L 355.598811 84.318083 
L 371.00627 83.784106 
L 386.41373 84.585072 
L 401.821189 83.250128 
L 417.228648 84.184589 
L 432.636107 82.71615 
L 448.043566 83.784106 
L 463.451026 84.184589 
L 478.858485 84.451578 
L 494.265944 84.318083 
L 509.673403 84.318083 
L 525.080862 84.318083 
L 540.488322 84.985555 
L 555.895781 85.11905 
L 571.30324 84.852061 
L 586.710699 85.386039 
L 602.118159 86.453994 
L 617.525618 85.11905 
L 632.933077 85.386039 
L 648.340536 85.653028 
L 663.747995 86.453994 
L 679.155455 86.720983 
" clip-path="url(#p4f0969375c)" style="fill: none; stroke: #ff0000; stroke-width: 1.5; stroke-linecap: square"/>
   </g>
   <g id="line2d_19">
    <path d="M 78.264545 102.443197 
L 93.672005 94.436775 
L 109.079464 95.975204 
L 124.486923 85.180929 
L 139.894382 87.261913 
L 155.301841 65.271492 
L 170.709301 64.033422 
L 186.11676 57.518154 
L 201.524219 61.976309 
L 216.931678 58.473934 
L 232.339138 61.416466 
L 247.746597 51.929783 
L 263.154056 64.674572 
L 278.561515 65.952156 
L 293.968974 75.842292 
L 309.376434 79.69641 
L 324.783893 82.010994 
L 340.191352 84.284233 
L 355.598811 87.941344 
L 371.00627 88.056288 
L 386.41373 86.399793 
L 401.821189 87.173796 
L 417.228648 87.341216 
L 432.636107 85.371185 
L 448.043566 86.03736 
L 463.451026 85.227388 
L 478.858485 84.972006 
L 494.265944 85.057179 
L 509.673403 84.251336 
L 525.080862 84.318083 
L 540.488322 84.718567 
L 555.895781 84.685193 
L 571.30324 84.647648 
L 586.710699 84.785314 
L 602.118159 85.58628 
L 617.525618 84.618446 
L 632.933077 84.585072 
L 648.340536 84.852061 
L 663.747995 85.519533 
L 679.155455 85.653028 
" clip-path="url(#p4f0969375c)" style="fill: none; stroke: #008000; stroke-width: 1.5; stroke-linecap: square"/>
   </g>
   <g id="patch_3">
    <path d="M 48.22 197.12 
L 48.22 26.88 
" style="fill: none; stroke: #000000; stroke-width: 0.8; stroke-linejoin: miter; stroke-linecap: square"/>
   </g>
   <g id="patch_4">
    <path d="M 709.2 197.12 
L 709.2 26.88 
" style="fill: none; stroke: #000000; stroke-width: 0.8; stroke-linejoin: miter; stroke-linecap: square"/>
   </g>
   <g id="patch_5">
    <path d="M 48.22 197.12 
L 709.2 197.12 
" style="fill: none; stroke: #000000; stroke-width: 0.8; stroke-linejoin: miter; stroke-linecap: square"/>
   </g>
   <g id="patch_6">
    <path d="M 48.22 26.88 
L 709.2 26.88 
" style="fill: none; stroke: #000000; stroke-width: 0.8; stroke-linejoin: miter; stroke-linecap: square"/>
   </g>
   <g id="text_17">
    <!-- shoulder_pan -->
    <g transform="translate(338.385313 20.88) scale(0.12 -0.12)">
     <defs>
      <path id="DejaVuSans-73" d="M 2834 3397 
L 2834 2853 
Q 2591 2978 2328 3040 
Q 2066 3103 1784 3103 
Q 1356 3103 1142 2972 
Q 928 2841 928 2578 
Q 928 2378 1081 2264 
Q 1234 2150 1697 2047 
L 1894 2003 
Q 2506 1872 2764 1633 
Q 3022 1394 3022 966 
Q 3022 478 2636 193 
Q 2250 -91 1575 -91 
Q 1294 -91 989 -36 
Q 684 19 347 128 
L 347 722 
Q 666 556 975 473 
Q 1284 391 1588 391 
Q 1994 391 2212 530 
Q 2431 669 2431 922 
Q 2431 1156 2273 1281 
Q 2116 1406 1581 1522 
L 1381 1569 
Q 847 1681 609 1914 
Q 372 2147 372 2553 
Q 372 3047 722 3315 
Q 1072 3584 1716 3584 
Q 2034 3584 2315 3537 
Q 2597 3491 2834 3397 
z
" transform="scale(0.015625)"/>
      <path id="DejaVuSans-68" d="M 3513 2113 
L 3513 0 
L 2938 0 
L 2938 2094 
Q 2938 2591 2744 2837 
Q 2550 3084 2163 3084 
Q 1697 3084 1428 2787 
Q 1159 2491 1159 1978 
L 1159 0 
L 581 0 
L 581 4863 
L 1159 4863 
L 1159 2956 
Q 1366 3272 1645 3428 
Q 1925 3584 2291 3584 
Q 2894 3584 3203 3211 
Q 3513 2838 3513 2113 
z
" transform="scale(0.015625)"/>
      <path id="DejaVuSans-6f" d="M 1959 3097 
Q 1497 3097 1228 2736 
Q 959 2375 959 1747 
Q 959 1119 1226 758 
Q 1494 397 1959 397 
Q 2419 397 2687 759 
Q 2956 1122 2956 1747 
Q 2956 2369 2687 2733 
Q 2419 3097 1959 3097 
z
M 1959 3584 
Q 2709 3584 3137 3096 
Q 3566 2609 3566 1747 
Q 3566 888 3137 398 
Q 2709 -91 1959 -91 
Q 1206 -91 779 398 
Q 353 888 353 1747 
Q 353 2609 779 3096 
Q 1206 3584 1959 3584 
z
" transform="scale(0.015625)"/>
      <path id="DejaVuSans-75" d="M 544 1381 
L 544 3500 
L 1119 3500 
L 1119 1403 
Q 1119 906 1312 657 
Q 1506 409 1894 409 
Q 2359 409 2629 706 
Q 2900 1003 2900 1516 
L 2900 3500 
L 3475 3500 
L 3475 0 
L 2900 0 
L 2900 538 
Q 2691 219 2414 64 
Q 2138 -91 1772 -91 
Q 1169 -91 856 284 
Q 544 659 544 1381 
z
M 1991 3584 
L 1991 3584 
z
" transform="scale(0.015625)"/>
      <path id="DejaVuSans-6c" d="M 603 4863 
L 1178 4863 
L 1178 0 
L 603 0 
L 603 4863 
z
" transform="scale(0.015625)"/>
      <path id="DejaVuSans-64" d="M 2906 2969 
L 2906 4863 
L 3481 4863 
L 3481 0 
L 2906 0 
L 2906 525 
Q 2725 213 2448 61 
Q 2172 -91 1784 -91 
Q 1150 -91 751 415 
Q 353 922 353 1747 
Q 353 2572 751 3078 
Q 1150 3584 1784 3584 
Q 2172 3584 2448 3432 
Q 2725 3281 2906 2969 
z
M 947 1747 
Q 947 1113 1208 752 
Q 1469 391 1925 391 
Q 2381 391 2643 752 
Q 2906 1113 2906 1747 
Q 2906 2381 2643 2742 
Q 2381 3103 1925 3103 
Q 1469 3103 1208 2742 
Q 947 2381 947 1747 
z
" transform="scale(0.015625)"/>
      <path id="DejaVuSans-65" d="M 3597 1894 
L 3597 1613 
L 953 1613 
Q 991 1019 1311 708 
Q 1631 397 2203 397 
Q 2534 397 2845 478 
Q 3156 559 3463 722 
L 3463 178 
Q 3153 47 2828 -22 
Q 2503 -91 2169 -91 
Q 1331 -91 842 396 
Q 353 884 353 1716 
Q 353 2575 817 3079 
Q 1281 3584 2069 3584 
Q 2775 3584 3186 3129 
Q 3597 2675 3597 1894 
z
M 3022 2063 
Q 3016 2534 2758 2815 
Q 2500 3097 2075 3097 
Q 1594 3097 1305 2825 
Q 1016 2553 972 2059 
L 3022 2063 
z
" transform="scale(0.015625)"/>
      <path id="DejaVuSans-72" d="M 2631 2963 
Q 2534 3019 2420 3045 
Q 2306 3072 2169 3072 
Q 1681 3072 1420 2755 
Q 1159 2438 1159 1844 
L 1159 0 
L 581 0 
L 581 3500 
L 1159 3500 
L 1159 2956 
Q 1341 3275 1631 3429 
Q 1922 3584 2338 3584 
Q 2397 3584 2469 3576 
Q 2541 3569 2628 3553 
L 2631 2963 
z
" transform="scale(0.015625)"/>
      <path id="DejaVuSans-5f" d="M 3263 -1063 
L 3263 -1509 
L -63 -1509 
L -63 -1063 
L 3263 -1063 
z
" transform="scale(0.015625)"/>
      <path id="DejaVuSans-70" d="M 1159 525 
L 1159 -1331 
L 581 -1331 
L 581 3500 
L 1159 3500 
L 1159 2969 
Q 1341 3281 1617 3432 
Q 1894 3584 2278 3584 
Q 2916 3584 3314 3078 
Q 3713 2572 3713 1747 
Q 3713 922 3314 415 
Q 2916 -91 2278 -91 
Q 1894 -91 1617 61 
Q 1341 213 1159 525 
z
M 3116 1747 
Q 3116 2381 2855 2742 
Q 2594 3103 2138 3103 
Q 1681 3103 1420 2742 
Q 1159 2381 1159 1747 
Q 1159 1113 1420 752 
Q 1681 391 2138 391 
Q 2594 391 2855 752 
Q 3116 1113 3116 1747 
z
" transform="scale(0.015625)"/>
      <path id="DejaVuSans-61" d="M 2194 1759 
Q 1497 1759 1228 1600 
Q 959 1441 959 1056 
Q 959 750 1161 570 
Q 1363 391 1709 391 
Q 2188 391 2477 730 
Q 2766 1069 2766 1631 
L 2766 1759 
L 2194 1759 
z
M 3341 1997 
L 3341 0 
L 2766 0 
L 2766 531 
Q 2569 213 2275 61 
Q 1981 -91 1556 -91 
Q 1019 -91 701 211 
Q 384 513 384 1019 
Q 384 1609 779 1909 
Q 1175 2209 1959 2209 
L 2766 2209 
L 2766 2266 
Q 2766 2663 2505 2880 
Q 2244 3097 1772 3097 
Q 1472 3097 1187 3025 
Q 903 2953 641 2809 
L 641 3341 
Q 956 3463 1253 3523 
Q 1550 3584 1831 3584 
Q 2591 3584 2966 3190 
Q 3341 2797 3341 1997 
z
" transform="scale(0.015625)"/>
      <path id="DejaVuSans-6e" d="M 3513 2113 
L 3513 0 
L 2938 0 
L 2938 2094 
Q 2938 2591 2744 2837 
Q 2550 3084 2163 3084 
Q 1697 3084 1428 2787 
Q 1159 2491 1159 1978 
L 1159 0 
L 581 0 
L 581 3500 
L 1159 3500 
L 1159 2956 
Q 1366 3272 1645 3428 
Q 1925 3584 2291 3584 
Q 2894 3584 3203 3211 
Q 3513 2838 3513 2113 
z
" transform="scale(0.015625)"/>
     </defs>
     <use xlink:href="#DejaVuSans-73"/>
     <use xlink:href="#DejaVuSans-68" transform="translate(52.099609 0)"/>
     <use xlink:href="#DejaVuSans-6f" transform="translate(115.478516 0)"/>
     <use xlink:href="#DejaVuSans-75" transform="translate(176.660156 0)"/>
     <use xlink:href="#DejaVuSans-6c" transform="translate(240.039062 0)"/>
     <use xlink:href="#DejaVuSans-64" transform="translate(267.822266 0)"/>
     <use xlink:href="#DejaVuSans-65" transform="translate(331.298828 0)"/>
     <use xlink:href="#DejaVuSans-72" transform="translate(392.822266 0)"/>
     <use xlink:href="#DejaVuSans-5f" transform="translate(433.935547 0)"/>
     <use xlink:href="#DejaVuSans-70" transform="translate(483.935547 0)"/>
     <use xlink:href="#DejaVuSans-61" transform="translate(547.412109 0)"/>
     <use xlink:href="#DejaVuSans-6e" transform="translate(608.691406 0)"/>
    </g>
   </g>
   <g id="legend_1">
    <g id="patch_7">
     <path d="M 496.482813 78.914375 
L 702.2 78.914375 
Q 704.2 78.914375 704.2 76.914375 
L 704.2 33.88 
Q 704.2 31.88 702.2 31.88 
L 496.482813 31.88 
Q 494.482813 31.88 494.482813 33.88 
L 494.482813 76.914375 
Q 494.482813 78.914375 496.482813 78.914375 
z
" style="fill: #ffffff; opacity: 0.8; stroke: #cccccc; stroke-linejoin: miter"/>
    </g>
    <g id="line2d_20">
     <path d="M 498.482813 39.978437 
L 508.482813 39.978437 
L 518.482813 39.978437 
" style="fill: none; stroke: #000000; stroke-width: 1.5; stroke-linecap: square"/>
    </g>
    <g id="text_18">
     <!-- previously generated action chunk -->
     <g transform="translate(526.482813 43.478437) scale(0.1 -0.1)">
      <defs>
       <path id="DejaVuSans-76" d="M 191 3500 
L 800 3500 
L 1894 563 
L 2988 3500 
L 3597 3500 
L 2284 0 
L 1503 0 
L 191 3500 
z
" transform="scale(0.015625)"/>
       <path id="DejaVuSans-69" d="M 603 3500 
L 1178 3500 
L 1178 0 
L 603 0 
L 603 3500 
z
M 603 4863 
L 1178 4863 
L 1178 4134 
L 603 4134 
L 603 4863 
z
" transform="scale(0.015625)"/>
       <path id="DejaVuSans-79" d="M 2059 -325 
Q 1816 -950 1584 -1140 
Q 1353 -1331 966 -1331 
L 506 -1331 
L 506 -850 
L 844 -850 
Q 1081 -850 1212 -737 
Q 1344 -625 1503 -206 
L 1606 56 
L 191 3500 
L 800 3500 
L 1894 763 
L 2988 3500 
L 3597 3500 
L 2059 -325 
z
" transform="scale(0.015625)"/>
       <path id="DejaVuSans-20" transform="scale(0.015625)"/>
       <path id="DejaVuSans-67" d="M 2906 1791 
Q 2906 2416 2648 2759 
Q 2391 3103 1925 3103 
Q 1463 3103 1205 2759 
Q 947 2416 947 1791 
Q 947 1169 1205 825 
Q 1463 481 1925 481 
Q 2391 481 2648 825 
Q 2906 1169 2906 1791 
z
M 3481 434 
Q 3481 -459 3084 -895 
Q 2688 -1331 1869 -1331 
Q 1566 -1331 1297 -1286 
Q 1028 -1241 775 -1147 
L 775 -588 
Q 1028 -725 1275 -790 
Q 1522 -856 1778 -856 
Q 2344 -856 2625 -561 
Q 2906 -266 2906 331 
L 2906 616 
Q 2728 306 2450 153 
Q 2172 0 1784 0 
Q 1141 0 747 490 
Q 353 981 353 1791 
Q 353 2603 747 3093 
Q 1141 3584 1784 3584 
Q 2172 3584 2450 3431 
Q 2728 3278 2906 2969 
L 2906 3500 
L 3481 3500 
L 3481 434 
z
" transform="scale(0.015625)"/>
       <path id="DejaVuSans-74" d="M 1172 4494 
L 1172 3500 
L 2356 3500 
L 2356 3053 
L 1172 3053 
L 1172 1153 
Q 1172 725 1289 603 
Q 1406 481 1766 481 
L 2356 481 
L 2356 0 
L 1766 0 
Q 1100 0 847 248 
Q 594 497 594 1153 
L 594 3053 
L 172 3053 
L 172 3500 
L 594 3500 
L 594 4494 
L 1172 4494 
z
" transform="scale(0.015625)"/>
       <path id="DejaVuSans-63" d="M 3122 3366 
L 3122 2828 
Q 2878 2963 2633 3030 
Q 2388 3097 2138 3097 
Q 1578 3097 1268 2742 
Q 959 2388 959 1747 
Q 959 1106 1268 751 
Q 1578 397 2138 397 
Q 2388 397 2633 464 
Q 2878 531 3122 666 
L 3122 134 
Q 2881 22 2623 -34 
Q 2366 -91 2075 -91 
Q 1284 -91 818 406 
Q 353 903 353 1747 
Q 353 2603 823 3093 
Q 1294 3584 2113 3584 
Q 2378 3584 2631 3529 
Q 2884 3475 3122 3366 
z
" transform="scale(0.015625)"/>
       <path id="DejaVuSans-6b" d="M 581 4863 
L 1159 4863 
L 1159 1991 
L 2875 3500 
L 3609 3500 
L 1753 1863 
L 3688 0 
L 2938 0 
L 1159 1709 
L 1159 0 
L 581 0 
L 581 4863 
z
" transform="scale(0.015625)"/>
      </defs>
      <use xlink:href="#DejaVuSans-70"/>
      <use xlink:href="#DejaVuSans-72" transform="translate(63.476562 0)"/>
      <use xlink:href="#DejaVuSans-65" transform="translate(102.339844 0)"/>
      <use xlink:href="#DejaVuSans-76" transform="translate(163.863281 0)"/>
      <use xlink:href="#DejaVuSans-69" transform="translate(223.042969 0)"/>
      <use xlink:href="#DejaVuSans-6f" transform="translate(250.826172 0)"/>
      <use xlink:href="#DejaVuSans-75" transform="translate(312.007812 0)"/>
      <use xlink:href="#DejaVuSans-73" transform="translate(375.386719 0)"/>
      <use xlink:href="#DejaVuSans-6c" transform="translate(427.486328 0)"/>
      <use xlink:href="#DejaVuSans-79" transform="translate(455.269531 0)"/>
      <use xlink:href="#DejaVuSans-20" transform="translate(514.449219 0)"/>
      <use xlink:href="#DejaVuSans-67" transform="translate(546.236328 0)"/>
      <use xlink:href="#DejaVuSans-65" transform="translate(609.712891 0)"/>
      <use xlink:href="#DejaVuSans-6e" transform="translate(671.236328 0)"/>
      <use xlink:href="#DejaVuSans-65" transform="translate(734.615234 0)"/>
      <use xlink:href="#DejaVuSans-72" transform="translate(796.138672 0)"/>
      <use xlink:href="#DejaVuSans-61" transform="translate(837.251953 0)"/>
      <use xlink:href="#DejaVuSans-74" transform="translate(898.53125 0)"/>
      <use xlink:href="#DejaVuSans-65" transform="translate(937.740234 0)"/>
      <use xlink:href="#DejaVuSans-64" transform="translate(999.263672 0)"/>
      <use xlink:href="#DejaVuSans-20" transform="translate(1062.740234 0)"/>
      <use xlink:href="#DejaVuSans-61" transform="translate(1094.527344 0)"/>
      <use xlink:href="#DejaVuSans-63" transform="translate(1155.806641 0)"/>
      <use xlink:href="#DejaVuSans-74" transform="translate(1210.787109 0)"/>
      <use xlink:href="#DejaVuSans-69" transform="translate(1249.996094 0)"/>
      <use xlink:href="#DejaVuSans-6f" transform="translate(1277.779297 0)"/>
      <use xlink:href="#DejaVuSans-6e" transform="translate(1338.960938 0)"/>
      <use xlink:href="#DejaVuSans-20" transform="translate(1402.339844 0)"/>
      <use xlink:href="#DejaVuSans-63" transform="translate(1434.126953 0)"/>
      <use xlink:href="#DejaVuSans-68" transform="translate(1489.107422 0)"/>
      <use xlink:href="#DejaVuSans-75" transform="translate(1552.486328 0)"/>
      <use xlink:href="#DejaVuSans-6e" transform="translate(1615.865234 0)"/>
      <use xlink:href="#DejaVuSans-6b" transform="translate(1679.244141 0)"/>
     </g>
    </g>
    <g id="line2d_21">
     <path d="M 498.482813 54.656562 
L 508.482813 54.656562 
L 518.482813 54.656562 
" style="fill: none; stroke: #ff0000; stroke-width: 1.5; stroke-linecap: square"/>
    </g>
    <g id="text_19">
     <!-- raw action chunk -->
     <g transform="translate(526.482813 58.156562) scale(0.1 -0.1)">
      <defs>
       <path id="DejaVuSans-77" d="M 269 3500 
L 844 3500 
L 1563 769 
L 2278 3500 
L 2956 3500 
L 3675 769 
L 4391 3500 
L 4966 3500 
L 4050 0 
L 3372 0 
L 2619 2869 
L 1863 0 
L 1184 0 
L 269 3500 
z
" transform="scale(0.015625)"/>
      </defs>
      <use xlink:href="#DejaVuSans-72"/>
      <use xlink:href="#DejaVuSans-61" transform="translate(41.113281 0)"/>
      <use xlink:href="#DejaVuSans-77" transform="translate(102.392578 0)"/>
      <use xlink:href="#DejaVuSans-20" transform="translate(184.179688 0)"/>
      <use xlink:href="#DejaVuSans-61" transform="translate(215.966797 0)"/>
      <use xlink:href="#DejaVuSans-63" transform="translate(277.246094 0)"/>
      <use xlink:href="#DejaVuSans-74" transform="translate(332.226562 0)"/>
      <use xlink:href="#DejaVuSans-69" transform="translate(371.435547 0)"/>
      <use xlink:href="#DejaVuSans-6f" transform="translate(399.21875 0)"/>
      <use xlink:href="#DejaVuSans-6e" transform="translate(460.400391 0)"/>
      <use xlink:href="#DejaVuSans-20" transform="translate(523.779297 0)"/>
      <use xlink:href="#DejaVuSans-63" transform="translate(555.566406 0)"/>
      <use xlink:href="#DejaVuSans-68" transform="translate(610.546875 0)"/>
      <use xlink:href="#DejaVuSans-75" transform="translate(673.925781 0)"/>
      <use xlink:href="#DejaVuSans-6e" transform="translate(737.304688 0)"/>
      <use xlink:href="#DejaVuSans-6b" transform="translate(800.683594 0)"/>
     </g>
    </g>
    <g id="line2d_22">
     <path d="M 498.482813 69.334687 
L 508.482813 69.334687 
L 518.482813 69.334687 
" style="fill: none; stroke: #008000; stroke-width: 1.5; stroke-linecap: square"/>
    </g>
    <g id="text_20">
     <!-- rtc action chunk -->
     <g transform="translate(526.482813 72.834687) scale(0.1 -0.1)">
      <use xlink:href="#DejaVuSans-72"/>
      <use xlink:href="#DejaVuSans-74" transform="translate(41.113281 0)"/>
      <use xlink:href="#DejaVuSans-63" transform="translate(80.322266 0)"/>
      <use xlink:href="#DejaVuSans-20" transform="translate(135.302734 0)"/>
      <use xlink:href="#DejaVuSans-61" transform="translate(167.089844 0)"/>
      <use xlink:href="#DejaVuSans-63" transform="translate(228.369141 0)"/>
      <use xlink:href="#DejaVuSans-74" transform="translate(283.349609 0)"/>
      <use xlink:href="#DejaVuSans-69" transform="translate(322.558594 0)"/>
      <use xlink:href="#DejaVuSans-6f" transform="translate(350.341797 0)"/>
      <use xlink:href="#DejaVuSans-6e" transform="translate(411.523438 0)"/>
      <use xlink:href="#DejaVuSans-20" transform="translate(474.902344 0)"/>
      <use xlink:href="#DejaVuSans-63" transform="translate(506.689453 0)"/>
      <use xlink:href="#DejaVuSans-68" transform="translate(561.669922 0)"/>
      <use xlink:href="#DejaVuSans-75" transform="translate(625.048828 0)"/>
      <use xlink:href="#DejaVuSans-6e" transform="translate(688.427734 0)"/>
      <use xlink:href="#DejaVuSans-6b" transform="translate(751.806641 0)"/>
     </g>
    </g>
   </g>
  </g>
  <g id="axes_2">
   <g id="patch_8">
    <path d="M 48.22 411.32 
L 709.2 411.32 
L 709.2 241.08 
L 48.22 241.08 
z
" style="fill: #ffffff"/>
   </g>
   <g id="matplotlib.axis_3">
    <g id="xtick_10">
     <g id="line2d_23">
      <g>
       <use xlink:href="#mca38c56f87" x="78.264545" y="411.32" style="stroke: #000000; stroke-width: 0.8"/>
      </g>
     </g>
     <g id="text_21">
      <!-- 0 -->
      <g transform="translate(75.083295 425.918437) scale(0.1 -0.1)">
       <use xlink:href="#DejaVuSans-30"/>
      </g>
     </g>
    </g>
    <g id="xtick_11">
     <g id="line2d_24">
      <g>
       <use xlink:href="#mca38c56f87" x="155.301841" y="411.32" style="stroke: #000000; stroke-width: 0.8"/>
      </g>
     </g>
     <g id="text_22">
      <!-- 5 -->
      <g transform="translate(152.120591 425.918437) scale(0.1 -0.1)">
       <use xlink:href="#DejaVuSans-35"/>
      </g>
     </g>
    </g>
    <g id="xtick_12">
     <g id="line2d_25">
      <g>
       <use xlink:href="#mca38c56f87" x="232.339138" y="411.32" style="stroke: #000000; stroke-width: 0.8"/>
      </g>
     </g>
     <g id="text_23">
      <!-- 10 -->
      <g transform="translate(225.976638 425.918437) scale(0.1 -0.1)">
       <use xlink:href="#DejaVuSans-31"/>
       <use xlink:href="#DejaVuSans-30" transform="translate(63.623047 0)"/>
      </g>
     </g>
    </g>
    <g id="xtick_13">
     <g id="line2d_26">
      <g>
       <use xlink:href="#mca38c56f87" x="309.376434" y="411.32" style="stroke: #000000; stroke-width: 0.8"/>
      </g>
     </g>
     <g id="text_24">
      <!-- 15 -->
      <g transform="translate(303.013934 425.918437) scale(0.1 -0.1)">
       <use xlink:href="#DejaVuSans-31"/>
       <use xlink:href="#DejaVuSans-35" transform="translate(63.623047 0)"/>
      </g>
     </g>
    </g>
    <g id="xtick_14">
     <g id="line2d_27">
      <g>
       <use xlink:href="#mca38c56f87" x="386.41373" y="411.32" style="stroke: #000000; stroke-width: 0.8"/>
      </g>
     </g>
     <g id="text_25">
      <!-- 20 -->
      <g transform="translate(380.05123 425.918437) scale(0.1 -0.1)">
       <use xlink:href="#DejaVuSans-32"/>
       <use xlink:href="#DejaVuSans-30" transform="translate(63.623047 0)"/>
      </g>
     </g>
    </g>
    <g id="xtick_15">
     <g id="line2d_28">
      <g>
       <use xlink:href="#mca38c56f87" x="463.451026" y="411.32" style="stroke: #000000; stroke-width: 0.8"/>
      </g>
     </g>
     <g id="text_26">
      <!-- 25 -->
      <g transform="translate(457.088526 425.918437) scale(0.1 -0.1)">
       <use xlink:href="#DejaVuSans-32"/>
       <use xlink:href="#DejaVuSans-35" transform="translate(63.623047 0)"/>
      </g>
     </g>
    </g>
    <g id="xtick_16">
     <g id="line2d_29">
      <g>
       <use xlink:href="#mca38c56f87" x="540.488322" y="411.32" style="stroke: #000000; stroke-width: 0.8"/>
      </g>
     </g>
     <g id="text_27">
      <!-- 30 -->
      <g transform="translate(534.125822 425.918437) scale(0.1 -0.1)">
       <use xlink:href="#DejaVuSans-33"/>
       <use xlink:href="#DejaVuSans-30" transform="translate(63.623047 0)"/>
      </g>
     </g>
    </g>
    <g id="xtick_17">
     <g id="line2d_30">
      <g>
       <use xlink:href="#mca38c56f87" x="617.525618" y="411.32" style="stroke: #000000; stroke-width: 0.8"/>
      </g>
     </g>
     <g id="text_28">
      <!-- 35 -->
      <g transform="translate(611.163118 425.918437) scale(0.1 -0.1)">
       <use xlink:href="#DejaVuSans-33"/>
       <use xlink:href="#DejaVuSans-35" transform="translate(63.623047 0)"/>
      </g>
     </g>
    </g>
    <g id="xtick_18">
     <g id="line2d_31">
      <g>
       <use xlink:href="#mca38c56f87" x="694.562914" y="411.32" style="stroke: #000000; stroke-width: 0.8"/>
      </g>
     </g>
     <g id="text_29">
      <!-- 40 -->
      <g transform="translate(688.200414 425.918437) scale(0.1 -0.1)">
       <use xlink:href="#DejaVuSans-34"/>
       <use xlink:href="#DejaVuSans-30" transform="translate(63.623047 0)"/>
      </g>
     </g>
    </g>
   </g>
   <g id="matplotlib.axis_4">
    <g id="ytick_8">
     <g id="line2d_32">
      <g>
       <use xlink:href="#m73bb124612" x="48.22" y="385.854797" style="stroke: #000000; stroke-width: 0.8"/>
      </g>
     </g>
     <g id="text_30">
      <!-- −0.4 -->
      <g transform="translate(16.937187 389.654016) scale(0.1 -0.1)">
       <use xlink:href="#DejaVuSans-2212"/>
       <use xlink:href="#DejaVuSans-30" transform="translate(83.789062 0)"/>
       <use xlink:href="#DejaVuSans-2e" transform="translate(147.412109 0)"/>
       <use xlink:href="#DejaVuSans-34" transform="translate(179.199219 0)"/>
      </g>
     </g>
    </g>
    <g id="ytick_9">
     <g id="line2d_33">
      <g>
       <use xlink:href="#m73bb124612" x="48.22" y="355.164307" style="stroke: #000000; stroke-width: 0.8"/>
      </g>
     </g>
     <g id="text_31">
      <!-- −0.2 -->
      <g transform="translate(16.937187 358.963525) scale(0.1 -0.1)">
       <use xlink:href="#DejaVuSans-2212"/>
       <use xlink:href="#DejaVuSans-30" transform="translate(83.789062 0)"/>
       <use xlink:href="#DejaVuSans-2e" transform="translate(147.412109 0)"/>
       <use xlink:href="#DejaVuSans-32" transform="translate(179.199219 0)"/>
      </g>
     </g>
    </g>
    <g id="ytick_10">
     <g id="line2d_34">
      <g>
       <use xlink:href="#m73bb124612" x="48.22" y="324.473816" style="stroke: #000000; stroke-width: 0.8"/>
      </g>
     </g>
     <g id="text_32">
      <!-- 0.0 -->
      <g transform="translate(25.316875 328.273035) scale(0.1 -0.1)">
       <use xlink:href="#DejaVuSans-30"/>
       <use xlink:href="#DejaVuSans-2e" transform="translate(63.623047 0)"/>
       <use xlink:href="#DejaVuSans-30" transform="translate(95.410156 0)"/>
      </g>
     </g>
    </g>
    <g id="ytick_11">
     <g id="line2d_35">
      <g>
       <use xlink:href="#m73bb124612" x="48.22" y="293.783326" style="stroke: #000000; stroke-width: 0.8"/>
      </g>
     </g>
     <g id="text_33">
      <!-- 0.2 -->
      <g transform="translate(25.316875 297.582545) scale(0.1 -0.1)">
       <use xlink:href="#DejaVuSans-30"/>
       <use xlink:href="#DejaVuSans-2e" transform="translate(63.623047 0)"/>
       <use xlink:href="#DejaVuSans-32" transform="translate(95.410156 0)"/>
      </g>
     </g>
    </g>
    <g id="ytick_12">
     <g id="line2d_36">
      <g>
       <use xlink:href="#m73bb124612" x="48.22" y="263.092836" style="stroke: #000000; stroke-width: 0.8"/>
      </g>
     </g>
     <g id="text_34">
      <!-- 0.4 -->
      <g transform="translate(25.316875 266.892055) scale(0.1 -0.1)">
       <use xlink:href="#DejaVuSans-30"/>
       <use xlink:href="#DejaVuSans-2e" transform="translate(63.623047 0)"/>
       <use xlink:href="#DejaVuSans-34" transform="translate(95.410156 0)"/>
      </g>
     </g>
    </g>
   </g>
   <g id="line2d_37">
    <path d="M 78.264545 299.668852 
L 93.672005 293.177232 
L 109.079464 282.906466 
L 124.486923 266.667173 
L 139.894382 256.71037 
L 155.301841 259.32309 
L 170.709301 250.24895 
L 186.11676 253.396217 
L 201.524219 248.818182 
L 216.931678 249.22187 
L 232.339138 251.36002 
L 247.746597 261.645952 
L 263.154056 255.97522 
L 278.561515 271.612729 
L 293.968974 294.045233 
L 309.376434 289.007844 
L 324.783893 307.276317 
L 340.191352 316.508654 
L 355.598811 336.958685 
L 371.00627 339.261494 
L 386.41373 351.147094 
L 401.821189 370.6663 
L 417.228648 380.16946 
L 432.636107 389.618495 
L 448.043566 392.95628 
L 463.451026 385.50144 
L 478.858485 403.581818 
L 494.265944 391.634232 
L 509.673403 396.443354 
L 525.080862 400.535211 
L 540.488322 386.594064 
L 555.895781 368.57334 
L 571.30324 380.923993 
L 586.710699 370.495904 
L 602.118159 366.705629 
L 617.525618 357.062759 
L 632.933077 335.31955 
L 648.340536 319.184862 
L 663.747995 321.460564 
L 679.155455 296.899397 
" clip-path="url(#p0c5a648f66)" style="fill: none; stroke: #000000; stroke-width: 1.5; stroke-linecap: square"/>
   </g>
   <g id="line2d_38">
    <path d="M 78.264545 299.597735 
L 93.672005 286.110704 
L 109.079464 286.410415 
L 124.486923 288.80811 
L 139.894382 292.10494 
L 155.301841 292.254796 
L 170.709301 293.004075 
L 186.11676 293.153931 
L 201.524219 296.600617 
L 216.931678 292.704364 
L 232.339138 294.952202 
L 247.746597 296.300905 
L 263.154056 296.600617 
L 278.561515 298.099176 
L 293.968974 299.897447 
L 309.376434 301.845574 
L 324.783893 300.796583 
L 340.191352 304.093413 
L 355.598811 303.493989 
L 371.00627 303.493989 
L 386.41373 306.116468 
L 401.821189 304.692836 
L 417.228648 306.865747 
L 432.636107 307.689955 
L 448.043566 306.640963 
L 463.451026 307.390243 
L 478.858485 306.341251 
L 494.265944 305.29226 
L 509.673403 305.741828 
L 525.080862 303.793701 
L 540.488322 306.491107 
L 555.895781 304.54298 
L 571.30324 305.891684 
L 586.710699 304.992548 
L 602.118159 304.093413 
L 617.525618 304.093413 
L 632.933077 303.493989 
L 648.340536 304.992548 
L 663.747995 303.793701 
L 679.155455 304.842692 
" clip-path="url(#p0c5a648f66)" style="fill: none; stroke: #ff0000; stroke-width: 1.5; stroke-linecap: square"/>
   </g>
   <g id="line2d_39">
    <path d="M 78.264545 298.458208 
L 93.672005 293.432309 
L 109.079464 282.806588 
L 124.486923 268.464388 
L 139.894382 259.688191 
L 155.301841 262.358021 
L 170.709301 254.008237 
L 186.11676 257.2343 
L 201.524219 253.646086 
L 216.931678 253.668198 
L 232.339138 258.330021 
L 247.746597 268.42927 
L 263.154056 266.451189 
L 278.561515 277.787842 
L 293.968974 288.98996 
L 309.376434 288.178261 
L 324.783893 292.646937 
L 340.191352 296.235494 
L 355.598811 298.930001 
L 371.00627 297.762584 
L 386.41373 299.819158 
L 401.821189 299.186995 
L 417.228648 300.323211 
L 432.636107 300.86471 
L 448.043566 298.904823 
L 463.451026 298.550374 
L 478.858485 297.956089 
L 494.265944 296.824153 
L 509.673403 297.349897 
L 525.080862 296.600617 
L 540.488322 299.597735 
L 555.895781 298.473816 
L 571.30324 300.197159 
L 586.710699 299.710127 
L 602.118159 298.998312 
L 617.525618 299.522807 
L 632.933077 299.298024 
L 648.340536 300.796583 
L 663.747995 299.897447 
L 679.155455 301.396006 
" clip-path="url(#p0c5a648f66)" style="fill: none; stroke: #008000; stroke-width: 1.5; stroke-linecap: square"/>
   </g>
   <g id="patch_9">
    <path d="M 48.22 411.32 
L 48.22 241.08 
" style="fill: none; stroke: #000000; stroke-width: 0.8; stroke-linejoin: miter; stroke-linecap: square"/>
   </g>
   <g id="patch_10">
    <path d="M 709.2 411.32 
L 709.2 241.08 
" style="fill: none; stroke: #000000; stroke-width: 0.8; stroke-linejoin: miter; stroke-linecap: square"/>
   </g>
   <g id="patch_11">
    <path d="M 48.22 411.32 
L 709.2 411.32 
" style="fill: none; stroke: #000000; stroke-width: 0.8; stroke-linejoin: miter; stroke-linecap: square"/>
   </g>
   <g id="patch_12">
    <path d="M 48.22 241.08 
L 709.2 241.08 
" style="fill: none; stroke: #000000; stroke-width: 0.8; stroke-linejoin: miter; stroke-linecap: square"/>
   </g>
   <g id="text_35">
    <!-- shoulder_lift -->
    <g transform="translate(341.980625 235.08) scale(0.12 -0.12)">
     <defs>
      <path id="DejaVuSans-66" d="M 2375 4863 
L 2375 4384 
L 1825 4384 
Q 1516 4384 1395 4259 
Q 1275 4134 1275 3809 
L 1275 3500 
L 2222 3500 
L 2222 3053 
L 1275 3053 
L 1275 0 
L 697 0 
L 697 3053 
L 147 3053 
L 147 3500 
L 697 3500 
L 697 3744 
Q 697 4328 969 4595 
Q 1241 4863 1831 4863 
L 2375 4863 
z
" transform="scale(0.015625)"/>
     </defs>
     <use xlink:href="#DejaVuSans-73"/>
     <use xlink:href="#DejaVuSans-68" transform="translate(52.099609 0)"/>
     <use xlink:href="#DejaVuSans-6f" transform="translate(115.478516 0)"/>
     <use xlink:href="#DejaVuSans-75" transform="translate(176.660156 0)"/>
     <use xlink:href="#DejaVuSans-6c" transform="translate(240.039062 0)"/>
     <use xlink:href="#DejaVuSans-64" transform="translate(267.822266 0)"/>
     <use xlink:href="#DejaVuSans-65" transform="translate(331.298828 0)"/>
     <use xlink:href="#DejaVuSans-72" transform="translate(392.822266 0)"/>
     <use xlink:href="#DejaVuSans-5f" transform="translate(433.935547 0)"/>
     <use xlink:href="#DejaVuSans-6c" transform="translate(483.935547 0)"/>
     <use xlink:href="#DejaVuSans-69" transform="translate(511.71875 0)"/>
     <use xlink:href="#DejaVuSans-66" transform="translate(539.501953 0)"/>
     <use xlink:href="#DejaVuSans-74" transform="translate(572.957031 0)"/>
    </g>
   </g>
   <g id="legend_2">
    <g id="patch_13">
     <path d="M 698.2 254.08 
L 702.2 254.08 
Q 704.2 254.08 704.2 252.08 
L 704.2 248.08 
Q 704.2 246.08 702.2 246.08 
L 698.2 246.08 
Q 696.2 246.08 696.2 248.08 
L 696.2 252.08 
Q 696.2 254.08 698.2 254.08 
z
" style="fill: #ffffff; opacity: 0.8; stroke: #cccccc; stroke-linejoin: miter"/>
    </g>
   </g>
  </g>
  <g id="axes_3">
   <g id="patch_14">
    <path d="M 48.22 625.52 
L 709.2 625.52 
L 709.2 455.28 
L 48.22 455.28 
z
" style="fill: #ffffff"/>
   </g>
   <g id="matplotlib.axis_5">
    <g id="xtick_19">
     <g id="line2d_40">
      <g>
       <use xlink:href="#mca38c56f87" x="78.264545" y="625.52" style="stroke: #000000; stroke-width: 0.8"/>
      </g>
     </g>
     <g id="text_36">
      <!-- 0 -->
      <g transform="translate(75.083295 640.118437) scale(0.1 -0.1)">
       <use xlink:href="#DejaVuSans-30"/>
      </g>
     </g>
    </g>
    <g id="xtick_20">
     <g id="line2d_41">
      <g>
       <use xlink:href="#mca38c56f87" x="155.301841" y="625.52" style="stroke: #000000; stroke-width: 0.8"/>
      </g>
     </g>
     <g id="text_37">
      <!-- 5 -->
      <g transform="translate(152.120591 640.118437) scale(0.1 -0.1)">
       <use xlink:href="#DejaVuSans-35"/>
      </g>
     </g>
    </g>
    <g id="xtick_21">
     <g id="line2d_42">
      <g>
       <use xlink:href="#mca38c56f87" x="232.339138" y="625.52" style="stroke: #000000; stroke-width: 0.8"/>
      </g>
     </g>
     <g id="text_38">
      <!-- 10 -->
      <g transform="translate(225.976638 640.118437) scale(0.1 -0.1)">
       <use xlink:href="#DejaVuSans-31"/>
       <use xlink:href="#DejaVuSans-30" transform="translate(63.623047 0)"/>
      </g>
     </g>
    </g>
    <g id="xtick_22">
     <g id="line2d_43">
      <g>
       <use xlink:href="#mca38c56f87" x="309.376434" y="625.52" style="stroke: #000000; stroke-width: 0.8"/>
      </g>
     </g>
     <g id="text_39">
      <!-- 15 -->
      <g transform="translate(303.013934 640.118437) scale(0.1 -0.1)">
       <use xlink:href="#DejaVuSans-31"/>
       <use xlink:href="#DejaVuSans-35" transform="translate(63.623047 0)"/>
      </g>
     </g>
    </g>
    <g id="xtick_23">
     <g id="line2d_44">
      <g>
       <use xlink:href="#mca38c56f87" x="386.41373" y="625.52" style="stroke: #000000; stroke-width: 0.8"/>
      </g>
     </g>
     <g id="text_40">
      <!-- 20 -->
      <g transform="translate(380.05123 640.118437) scale(0.1 -0.1)">
       <use xlink:href="#DejaVuSans-32"/>
       <use xlink:href="#DejaVuSans-30" transform="translate(63.623047 0)"/>
      </g>
     </g>
    </g>
    <g id="xtick_24">
     <g id="line2d_45">
      <g>
       <use xlink:href="#mca38c56f87" x="463.451026" y="625.52" style="stroke: #000000; stroke-width: 0.8"/>
      </g>
     </g>
     <g id="text_41">
      <!-- 25 -->
      <g transform="translate(457.088526 640.118437) scale(0.1 -0.1)">
       <use xlink:href="#DejaVuSans-32"/>
       <use xlink:href="#DejaVuSans-35" transform="translate(63.623047 0)"/>
      </g>
     </g>
    </g>
    <g id="xtick_25">
     <g id="line2d_46">
      <g>
       <use xlink:href="#mca38c56f87" x="540.488322" y="625.52" style="stroke: #000000; stroke-width: 0.8"/>
      </g>
     </g>
     <g id="text_42">
      <!-- 30 -->
      <g transform="translate(534.125822 640.118437) scale(0.1 -0.1)">
       <use xlink:href="#DejaVuSans-33"/>
       <use xlink:href="#DejaVuSans-30" transform="translate(63.623047 0)"/>
      </g>
     </g>
    </g>
    <g id="xtick_26">
     <g id="line2d_47">
      <g>
       <use xlink:href="#mca38c56f87" x="617.525618" y="625.52" style="stroke: #000000; stroke-width: 0.8"/>
      </g>
     </g>
     <g id="text_43">
      <!-- 35 -->
      <g transform="translate(611.163118 640.118437) scale(0.1 -0.1)">
       <use xlink:href="#DejaVuSans-33"/>
       <use xlink:href="#DejaVuSans-35" transform="translate(63.623047 0)"/>
      </g>
     </g>
    </g>
    <g id="xtick_27">
     <g id="line2d_48">
      <g>
       <use xlink:href="#mca38c56f87" x="694.562914" y="625.52" style="stroke: #000000; stroke-width: 0.8"/>
      </g>
     </g>
     <g id="text_44">
      <!-- 40 -->
      <g transform="translate(688.200414 640.118437) scale(0.1 -0.1)">
       <use xlink:href="#DejaVuSans-34"/>
       <use xlink:href="#DejaVuSans-30" transform="translate(63.623047 0)"/>
      </g>
     </g>
    </g>
   </g>
   <g id="matplotlib.axis_6">
    <g id="ytick_13">
     <g id="line2d_49">
      <g>
       <use xlink:href="#m73bb124612" x="48.22" y="601.840127" style="stroke: #000000; stroke-width: 0.8"/>
      </g>
     </g>
     <g id="text_45">
      <!-- −0.4 -->
      <g transform="translate(16.937187 605.639346) scale(0.1 -0.1)">
       <use xlink:href="#DejaVuSans-2212"/>
       <use xlink:href="#DejaVuSans-30" transform="translate(83.789062 0)"/>
       <use xlink:href="#DejaVuSans-2e" transform="translate(147.412109 0)"/>
       <use xlink:href="#DejaVuSans-34" transform="translate(179.199219 0)"/>
      </g>
     </g>
    </g>
    <g id="ytick_14">
     <g id="line2d_50">
      <g>
       <use xlink:href="#m73bb124612" x="48.22" y="570.690691" style="stroke: #000000; stroke-width: 0.8"/>
      </g>
     </g>
     <g id="text_46">
      <!-- −0.2 -->
      <g transform="translate(16.937187 574.489909) scale(0.1 -0.1)">
       <use xlink:href="#DejaVuSans-2212"/>
       <use xlink:href="#DejaVuSans-30" transform="translate(83.789062 0)"/>
       <use xlink:href="#DejaVuSans-2e" transform="translate(147.412109 0)"/>
       <use xlink:href="#DejaVuSans-32" transform="translate(179.199219 0)"/>
      </g>
     </g>
    </g>
    <g id="ytick_15">
     <g id="line2d_51">
      <g>
       <use xlink:href="#m73bb124612" x="48.22" y="539.541254" style="stroke: #000000; stroke-width: 0.8"/>
      </g>
     </g>
     <g id="text_47">
      <!-- 0.0 -->
      <g transform="translate(25.316875 543.340473) scale(0.1 -0.1)">
       <use xlink:href="#DejaVuSans-30"/>
       <use xlink:href="#DejaVuSans-2e" transform="translate(63.623047 0)"/>
       <use xlink:href="#DejaVuSans-30" transform="translate(95.410156 0)"/>
      </g>
     </g>
    </g>
    <g id="ytick_16">
     <g id="line2d_52">
      <g>
       <use xlink:href="#m73bb124612" x="48.22" y="508.391817" style="stroke: #000000; stroke-width: 0.8"/>
      </g>
     </g>
     <g id="text_48">
      <!-- 0.2 -->
      <g transform="translate(25.316875 512.191036) scale(0.1 -0.1)">
       <use xlink:href="#DejaVuSans-30"/>
       <use xlink:href="#DejaVuSans-2e" transform="translate(63.623047 0)"/>
       <use xlink:href="#DejaVuSans-32" transform="translate(95.410156 0)"/>
      </g>
     </g>
    </g>
    <g id="ytick_17">
     <g id="line2d_53">
      <g>
       <use xlink:href="#m73bb124612" x="48.22" y="477.242381" style="stroke: #000000; stroke-width: 0.8"/>
      </g>
     </g>
     <g id="text_49">
      <!-- 0.4 -->
      <g transform="translate(25.316875 481.0416) scale(0.1 -0.1)">
       <use xlink:href="#DejaVuSans-30"/>
       <use xlink:href="#DejaVuSans-2e" transform="translate(63.623047 0)"/>
       <use xlink:href="#DejaVuSans-34" transform="translate(95.410156 0)"/>
      </g>
     </g>
    </g>
   </g>
   <g id="line2d_54">
    <path d="M 78.264545 472.026845 
L 93.672005 484.10618 
L 109.079464 483.68393 
L 124.486923 467.076386 
L 139.894382 463.018182 
L 155.301841 468.159218 
L 170.709301 468.213271 
L 186.11676 466.29235 
L 201.524219 465.765374 
L 216.931678 473.454883 
L 232.339138 480.041356 
L 247.746597 498.618098 
L 263.154056 512.278508 
L 278.561515 503.607494 
L 293.968974 531.175644 
L 309.376434 538.314176 
L 324.783893 543.857313 
L 340.191352 561.745917 
L 355.598811 582.409884 
L 371.00627 583.147704 
L 386.41373 581.115132 
L 401.821189 612.98598 
L 417.228648 600.516662 
L 432.636107 604.88288 
L 448.043566 614.298506 
L 463.451026 617.781818 
L 478.858485 610.970451 
L 494.265944 610.463998 
L 509.673403 611.792967 
L 525.080862 593.026996 
L 540.488322 589.72226 
L 555.895781 583.182039 
L 571.30324 577.928323 
L 586.710699 559.721261 
L 602.118159 546.485735 
L 617.525618 531.906414 
L 632.933077 534.165625 
L 648.340536 515.96288 
L 663.747995 499.406356 
L 679.155455 480.388382 
" clip-path="url(#p3e9fe19bae)" style="fill: none; stroke: #000000; stroke-width: 1.5; stroke-linecap: square"/>
   </g>
   <g id="line2d_55">
    <path d="M 78.264545 511.251238 
L 93.672005 511.251238 
L 109.079464 509.426076 
L 124.486923 507.600914 
L 139.894382 504.86317 
L 155.301841 504.254783 
L 170.709301 505.167364 
L 186.11676 505.167364 
L 201.524219 503.494299 
L 216.931678 505.167364 
L 232.339138 503.342202 
L 247.746597 503.342202 
L 263.154056 505.167364 
L 278.561515 504.558977 
L 293.968974 503.342202 
L 309.376434 500.604458 
L 324.783893 503.494299 
L 340.191352 500.908652 
L 355.598811 503.342202 
L 371.00627 504.86317 
L 386.41373 503.342202 
L 401.821189 504.558977 
L 417.228648 502.581717 
L 432.636107 503.646395 
L 448.043566 505.471558 
L 463.451026 505.167364 
L 478.858485 506.84043 
L 494.265944 509.121882 
L 509.673403 509.121882 
L 525.080862 509.73027 
L 540.488322 508.209301 
L 555.895781 509.882367 
L 571.30324 509.73027 
L 586.710699 510.338657 
L 602.118159 513.076401 
L 617.525618 512.772207 
L 632.933077 514.293176 
L 648.340536 512.772207 
L 663.747995 514.293176 
L 679.155455 513.684788 
" clip-path="url(#p3e9fe19bae)" style="fill: none; stroke: #ff0000; stroke-width: 1.5; stroke-linecap: square"/>
   </g>
   <g id="line2d_56">
    <path d="M 78.264545 479.668693 
L 93.672005 489.960055 
L 109.079464 489.248419 
L 124.486923 475.527489 
L 139.894382 471.501151 
L 155.301841 476.073558 
L 170.709301 476.031839 
L 186.11676 473.821681 
L 201.524219 473.213294 
L 216.931678 479.656286 
L 232.339138 488.636221 
L 247.746597 503.799931 
L 263.154056 511.60118 
L 278.561515 508.574539 
L 293.968974 518.805996 
L 309.376434 518.48981 
L 324.783893 519.851574 
L 340.191352 520.542964 
L 355.598811 523.342514 
L 371.00627 521.731116 
L 386.41373 518.100591 
L 401.821189 519.543404 
L 417.228648 514.34023 
L 432.636107 514.371419 
L 448.043566 514.723459 
L 463.451026 512.576739 
L 478.858485 513.324575 
L 494.265944 514.613123 
L 509.673403 514.445272 
L 525.080862 515.205757 
L 540.488322 513.180967 
L 555.895781 514.749466 
L 571.30324 513.931946 
L 586.710699 514.901563 
L 602.118159 517.335113 
L 617.525618 516.422532 
L 632.933077 517.639306 
L 648.340536 516.422532 
L 663.747995 517.48721 
L 679.155455 517.183016 
" clip-path="url(#p3e9fe19bae)" style="fill: none; stroke: #008000; stroke-width: 1.5; stroke-linecap: square"/>
   </g>
   <g id="patch_15">
    <path d="M 48.22 625.52 
L 48.22 455.28 
" style="fill: none; stroke: #000000; stroke-width: 0.8; stroke-linejoin: miter; stroke-linecap: square"/>
   </g>
   <g id="patch_16">
    <path d="M 709.2 625.52 
L 709.2 455.28 
" style="fill: none; stroke: #000000; stroke-width: 0.8; stroke-linejoin: miter; stroke-linecap: square"/>
   </g>
   <g id="patch_17">
    <path d="M 48.22 625.52 
L 709.2 625.52 
" style="fill: none; stroke: #000000; stroke-width: 0.8; stroke-linejoin: miter; stroke-linecap: square"/>
   </g>
   <g id="patch_18">
    <path d="M 48.22 455.28 
L 709.2 455.28 
" style="fill: none; stroke: #000000; stroke-width: 0.8; stroke-linejoin: miter; stroke-linecap: square"/>
   </g>
   <g id="text_50">
    <!-- elbow_flex -->
    <g transform="translate(347.046875 449.28) scale(0.12 -0.12)">
     <defs>
      <path id="DejaVuSans-62" d="M 3116 1747 
Q 3116 2381 2855 2742 
Q 2594 3103 2138 3103 
Q 1681 3103 1420 2742 
Q 1159 2381 1159 1747 
Q 1159 1113 1420 752 
Q 1681 391 2138 391 
Q 2594 391 2855 752 
Q 3116 1113 3116 1747 
z
M 1159 2969 
Q 1341 3281 1617 3432 
Q 1894 3584 2278 3584 
Q 2916 3584 3314 3078 
Q 3713 2572 3713 1747 
Q 3713 922 3314 415 
Q 2916 -91 2278 -91 
Q 1894 -91 1617 61 
Q 1341 213 1159 525 
L 1159 0 
L 581 0 
L 581 4863 
L 1159 4863 
L 1159 2969 
z
" transform="scale(0.015625)"/>
      <path id="DejaVuSans-78" d="M 3513 3500 
L 2247 1797 
L 3578 0 
L 2900 0 
L 1881 1375 
L 863 0 
L 184 0 
L 1544 1831 
L 300 3500 
L 978 3500 
L 1906 2253 
L 2834 3500 
L 3513 3500 
z
" transform="scale(0.015625)"/>
     </defs>
     <use xlink:href="#DejaVuSans-65"/>
     <use xlink:href="#DejaVuSans-6c" transform="translate(61.523438 0)"/>
     <use xlink:href="#DejaVuSans-62" transform="translate(89.306641 0)"/>
     <use xlink:href="#DejaVuSans-6f" transform="translate(152.783203 0)"/>
     <use xlink:href="#DejaVuSans-77" transform="translate(213.964844 0)"/>
     <use xlink:href="#DejaVuSans-5f" transform="translate(295.751953 0)"/>
     <use xlink:href="#DejaVuSans-66" transform="translate(345.751953 0)"/>
     <use xlink:href="#DejaVuSans-6c" transform="translate(380.957031 0)"/>
     <use xlink:href="#DejaVuSans-65" transform="translate(408.740234 0)"/>
     <use xlink:href="#DejaVuSans-78" transform="translate(468.513672 0)"/>
    </g>
   </g>
   <g id="legend_3">
    <g id="patch_19">
     <path d="M 698.2 468.28 
L 702.2 468.28 
Q 704.2 468.28 704.2 466.28 
L 704.2 462.28 
Q 704.2 460.28 702.2 460.28 
L 698.2 460.28 
Q 696.2 460.28 696.2 462.28 
L 696.2 466.28 
Q 696.2 468.28 698.2 468.28 
z
" style="fill: #ffffff; opacity: 0.8; stroke: #cccccc; stroke-linejoin: miter"/>
    </g>
   </g>
  </g>
  <g id="axes_4">
   <g id="patch_20">
    <path d="M 48.22 839.72 
L 709.2 839.72 
L 709.2 669.48 
L 48.22 669.48 
z
" style="fill: #ffffff"/>
   </g>
   <g id="matplotlib.axis_7">
    <g id="xtick_28">
     <g id="line2d_57">
      <g>
       <use xlink:href="#mca38c56f87" x="78.264545" y="839.72" style="stroke: #000000; stroke-width: 0.8"/>
      </g>
     </g>
     <g id="text_51">
      <!-- 0 -->
      <g transform="translate(75.083295 854.318438) scale(0.1 -0.1)">
       <use xlink:href="#DejaVuSans-30"/>
      </g>
     </g>
    </g>
    <g id="xtick_29">
     <g id="line2d_58">
      <g>
       <use xlink:href="#mca38c56f87" x="155.301841" y="839.72" style="stroke: #000000; stroke-width: 0.8"/>
      </g>
     </g>
     <g id="text_52">
      <!-- 5 -->
      <g transform="translate(152.120591 854.318438) scale(0.1 -0.1)">
       <use xlink:href="#DejaVuSans-35"/>
      </g>
     </g>
    </g>
    <g id="xtick_30">
     <g id="line2d_59">
      <g>
       <use xlink:href="#mca38c56f87" x="232.339138" y="839.72" style="stroke: #000000; stroke-width: 0.8"/>
      </g>
     </g>
     <g id="text_53">
      <!-- 10 -->
      <g transform="translate(225.976638 854.318438) scale(0.1 -0.1)">
       <use xlink:href="#DejaVuSans-31"/>
       <use xlink:href="#DejaVuSans-30" transform="translate(63.623047 0)"/>
      </g>
     </g>
    </g>
    <g id="xtick_31">
     <g id="line2d_60">
      <g>
       <use xlink:href="#mca38c56f87" x="309.376434" y="839.72" style="stroke: #000000; stroke-width: 0.8"/>
      </g>
     </g>
     <g id="text_54">
      <!-- 15 -->
      <g transform="translate(303.013934 854.318438) scale(0.1 -0.1)">
       <use xlink:href="#DejaVuSans-31"/>
       <use xlink:href="#DejaVuSans-35" transform="translate(63.623047 0)"/>
      </g>
     </g>
    </g>
    <g id="xtick_32">
     <g id="line2d_61">
      <g>
       <use xlink:href="#mca38c56f87" x="386.41373" y="839.72" style="stroke: #000000; stroke-width: 0.8"/>
      </g>
     </g>
     <g id="text_55">
      <!-- 20 -->
      <g transform="translate(380.05123 854.318438) scale(0.1 -0.1)">
       <use xlink:href="#DejaVuSans-32"/>
       <use xlink:href="#DejaVuSans-30" transform="translate(63.623047 0)"/>
      </g>
     </g>
    </g>
    <g id="xtick_33">
     <g id="line2d_62">
      <g>
       <use xlink:href="#mca38c56f87" x="463.451026" y="839.72" style="stroke: #000000; stroke-width: 0.8"/>
      </g>
     </g>
     <g id="text_56">
      <!-- 25 -->
      <g transform="translate(457.088526 854.318438) scale(0.1 -0.1)">
       <use xlink:href="#DejaVuSans-32"/>
       <use xlink:href="#DejaVuSans-35" transform="translate(63.623047 0)"/>
      </g>
     </g>
    </g>
    <g id="xtick_34">
     <g id="line2d_63">
      <g>
       <use xlink:href="#mca38c56f87" x="540.488322" y="839.72" style="stroke: #000000; stroke-width: 0.8"/>
      </g>
     </g>
     <g id="text_57">
      <!-- 30 -->
      <g transform="translate(534.125822 854.318438) scale(0.1 -0.1)">
       <use xlink:href="#DejaVuSans-33"/>
       <use xlink:href="#DejaVuSans-30" transform="translate(63.623047 0)"/>
      </g>
     </g>
    </g>
    <g id="xtick_35">
     <g id="line2d_64">
      <g>
       <use xlink:href="#mca38c56f87" x="617.525618" y="839.72" style="stroke: #000000; stroke-width: 0.8"/>
      </g>
     </g>
     <g id="text_58">
      <!-- 35 -->
      <g transform="translate(611.163118 854.318438) scale(0.1 -0.1)">
       <use xlink:href="#DejaVuSans-33"/>
       <use xlink:href="#DejaVuSans-35" transform="translate(63.623047 0)"/>
      </g>
     </g>
    </g>
    <g id="xtick_36">
     <g id="line2d_65">
      <g>
       <use xlink:href="#mca38c56f87" x="694.562914" y="839.72" style="stroke: #000000; stroke-width: 0.8"/>
      </g>
     </g>
     <g id="text_59">
      <!-- 40 -->
      <g transform="translate(688.200414 854.318438) scale(0.1 -0.1)">
       <use xlink:href="#DejaVuSans-34"/>
       <use xlink:href="#DejaVuSans-30" transform="translate(63.623047 0)"/>
      </g>
     </g>
    </g>
   </g>
   <g id="matplotlib.axis_8">
    <g id="ytick_18">
     <g id="line2d_66">
      <g>
       <use xlink:href="#m73bb124612" x="48.22" y="824.97668" style="stroke: #000000; stroke-width: 0.8"/>
      </g>
     </g>
     <g id="text_60">
      <!-- −0.6 -->
      <g transform="translate(16.937187 828.775898) scale(0.1 -0.1)">
       <use xlink:href="#DejaVuSans-2212"/>
       <use xlink:href="#DejaVuSans-30" transform="translate(83.789062 0)"/>
       <use xlink:href="#DejaVuSans-2e" transform="translate(147.412109 0)"/>
       <use xlink:href="#DejaVuSans-36" transform="translate(179.199219 0)"/>
      </g>
     </g>
    </g>
    <g id="ytick_19">
     <g id="line2d_67">
      <g>
       <use xlink:href="#m73bb124612" x="48.22" y="799.193755" style="stroke: #000000; stroke-width: 0.8"/>
      </g>
     </g>
     <g id="text_61">
      <!-- −0.4 -->
      <g transform="translate(16.937187 802.992974) scale(0.1 -0.1)">
       <use xlink:href="#DejaVuSans-2212"/>
       <use xlink:href="#DejaVuSans-30" transform="translate(83.789062 0)"/>
       <use xlink:href="#DejaVuSans-2e" transform="translate(147.412109 0)"/>
       <use xlink:href="#DejaVuSans-34" transform="translate(179.199219 0)"/>
      </g>
     </g>
    </g>
    <g id="ytick_20">
     <g id="line2d_68">
      <g>
       <use xlink:href="#m73bb124612" x="48.22" y="773.41083" style="stroke: #000000; stroke-width: 0.8"/>
      </g>
     </g>
     <g id="text_62">
      <!-- −0.2 -->
      <g transform="translate(16.937187 777.210049) scale(0.1 -0.1)">
       <use xlink:href="#DejaVuSans-2212"/>
       <use xlink:href="#DejaVuSans-30" transform="translate(83.789062 0)"/>
       <use xlink:href="#DejaVuSans-2e" transform="translate(147.412109 0)"/>
       <use xlink:href="#DejaVuSans-32" transform="translate(179.199219 0)"/>
      </g>
     </g>
    </g>
    <g id="ytick_21">
     <g id="line2d_69">
      <g>
       <use xlink:href="#m73bb124612" x="48.22" y="747.627906" style="stroke: #000000; stroke-width: 0.8"/>
      </g>
     </g>
     <g id="text_63">
      <!-- 0.0 -->
      <g transform="translate(25.316875 751.427125) scale(0.1 -0.1)">
       <use xlink:href="#DejaVuSans-30"/>
       <use xlink:href="#DejaVuSans-2e" transform="translate(63.623047 0)"/>
       <use xlink:href="#DejaVuSans-30" transform="translate(95.410156 0)"/>
      </g>
     </g>
    </g>
    <g id="ytick_22">
     <g id="line2d_70">
      <g>
       <use xlink:href="#m73bb124612" x="48.22" y="721.844981" style="stroke: #000000; stroke-width: 0.8"/>
      </g>
     </g>
     <g id="text_64">
      <!-- 0.2 -->
      <g transform="translate(25.316875 725.6442) scale(0.1 -0.1)">
       <use xlink:href="#DejaVuSans-30"/>
       <use xlink:href="#DejaVuSans-2e" transform="translate(63.623047 0)"/>
       <use xlink:href="#DejaVuSans-32" transform="translate(95.410156 0)"/>
      </g>
     </g>
    </g>
    <g id="ytick_23">
     <g id="line2d_71">
      <g>
       <use xlink:href="#m73bb124612" x="48.22" y="696.062057" style="stroke: #000000; stroke-width: 0.8"/>
      </g>
     </g>
     <g id="text_65">
      <!-- 0.4 -->
      <g transform="translate(25.316875 699.861275) scale(0.1 -0.1)">
       <use xlink:href="#DejaVuSans-30"/>
       <use xlink:href="#DejaVuSans-2e" transform="translate(63.623047 0)"/>
       <use xlink:href="#DejaVuSans-34" transform="translate(95.410156 0)"/>
      </g>
     </g>
    </g>
    <g id="ytick_24">
     <g id="line2d_72">
      <g>
       <use xlink:href="#m73bb124612" x="48.22" y="670.279132" style="stroke: #000000; stroke-width: 0.8"/>
      </g>
     </g>
     <g id="text_66">
      <!-- 0.6 -->
      <g transform="translate(25.316875 674.078351) scale(0.1 -0.1)">
       <use xlink:href="#DejaVuSans-30"/>
       <use xlink:href="#DejaVuSans-2e" transform="translate(63.623047 0)"/>
       <use xlink:href="#DejaVuSans-36" transform="translate(95.410156 0)"/>
      </g>
     </g>
    </g>
   </g>
   <g id="line2d_73">
    <path d="M 78.264545 688.080313 
L 93.672005 688.005711 
L 109.079464 684.772455 
L 124.486923 677.218182 
L 139.894382 678.594112 
L 155.301841 688.10997 
L 170.709301 684.565756 
L 186.11676 689.358585 
L 201.524219 695.163927 
L 216.931678 714.349303 
L 232.339138 720.952835 
L 247.746597 729.27475 
L 263.154056 721.90421 
L 278.561515 751.479573 
L 293.968974 758.958204 
L 309.376434 765.286806 
L 324.783893 770.282324 
L 340.191352 774.173251 
L 355.598811 789.679641 
L 371.00627 796.449496 
L 386.41373 814.269321 
L 401.821189 803.415617 
L 417.228648 815.753937 
L 432.636107 811.898686 
L 448.043566 831.981818 
L 463.451026 800.503266 
L 478.858485 803.828138 
L 494.265944 798.513678 
L 509.673403 787.292316 
L 525.080862 779.636921 
L 540.488322 775.946048 
L 555.895781 763.066954 
L 571.30324 748.808602 
L 586.710699 737.609654 
L 602.118159 720.454334 
L 617.525618 726.688857 
L 632.933077 713.505608 
L 648.340536 702.850655 
L 663.747995 701.949183 
L 679.155455 687.457732 
" clip-path="url(#pd5dc5470b0)" style="fill: none; stroke: #000000; stroke-width: 1.5; stroke-linecap: square"/>
   </g>
   <g id="line2d_74">
    <path d="M 78.264545 778.975309 
L 93.672005 796.978035 
L 109.079464 795.467317 
L 124.486923 795.467317 
L 139.894382 792.44588 
L 155.301841 794.711958 
L 170.709301 794.460171 
L 186.11676 793.453026 
L 201.524219 794.460171 
L 216.931678 794.460171 
L 232.339138 793.453026 
L 247.746597 792.697667 
L 263.154056 792.44588 
L 278.561515 790.935162 
L 293.968974 792.44588 
L 309.376434 790.683376 
L 324.783893 788.417298 
L 340.191352 788.920871 
L 355.598811 787.410153 
L 371.00627 783.885144 
L 386.41373 782.877998 
L 401.821189 779.352989 
L 417.228648 780.611921 
L 432.636107 776.835125 
L 448.043566 774.694941 
L 463.451026 775.198514 
L 478.858485 770.414573 
L 494.265944 769.911 
L 509.673403 768.400282 
L 525.080862 765.882418 
L 540.488322 765.630631 
L 555.895781 765.252952 
L 571.30324 762.105622 
L 586.710699 761.22437 
L 602.118159 758.706506 
L 617.525618 757.195788 
L 632.933077 753.922565 
L 648.340536 752.160061 
L 663.747995 750.649342 
L 679.155455 748.918311 
" clip-path="url(#pd5dc5470b0)" style="fill: none; stroke: #ff0000; stroke-width: 1.5; stroke-linecap: square"/>
   </g>
   <g id="line2d_75">
    <path d="M 78.264545 698.49842 
L 93.672005 697.669296 
L 109.079464 697.003108 
L 124.486923 691.350155 
L 139.894382 692.533462 
L 155.301841 701.135292 
L 170.709301 697.935943 
L 186.11676 702.727752 
L 201.524219 707.553655 
L 216.931678 723.103215 
L 232.339138 734.403397 
L 247.746597 745.374739 
L 263.154056 743.949518 
L 278.561515 763.424139 
L 293.968974 768.404054 
L 309.376434 770.440521 
L 324.783893 772.225799 
L 340.191352 774.616884 
L 355.598811 776.608888 
L 371.00627 774.496638 
L 386.41373 775.267726 
L 401.821189 770.80265 
L 417.228648 772.612905 
L 432.636107 768.875823 
L 448.043566 766.053519 
L 463.451026 765.722869 
L 478.858485 761.647849 
L 494.265944 761.142757 
L 509.673403 759.713652 
L 525.080862 757.825254 
L 540.488322 757.384628 
L 555.895781 756.944002 
L 571.30324 754.174352 
L 586.710699 753.418992 
L 602.118159 751.152915 
L 617.525618 749.642197 
L 632.933077 748.005585 
L 648.340536 746.62076 
L 663.747995 744.606469 
L 679.155455 743.081982 
" clip-path="url(#pd5dc5470b0)" style="fill: none; stroke: #008000; stroke-width: 1.5; stroke-linecap: square"/>
   </g>
   <g id="patch_21">
    <path d="M 48.22 839.72 
L 48.22 669.48 
" style="fill: none; stroke: #000000; stroke-width: 0.8; stroke-linejoin: miter; stroke-linecap: square"/>
   </g>
   <g id="patch_22">
    <path d="M 709.2 839.72 
L 709.2 669.48 
" style="fill: none; stroke: #000000; stroke-width: 0.8; stroke-linejoin: miter; stroke-linecap: square"/>
   </g>
   <g id="patch_23">
    <path d="M 48.22 839.72 
L 709.2 839.72 
" style="fill: none; stroke: #000000; stroke-width: 0.8; stroke-linejoin: miter; stroke-linecap: square"/>
   </g>
   <g id="patch_24">
    <path d="M 48.22 669.48 
L 709.2 669.48 
" style="fill: none; stroke: #000000; stroke-width: 0.8; stroke-linejoin: miter; stroke-linecap: square"/>
   </g>
   <g id="text_67">
    <!-- wrist_flex -->
    <g transform="translate(350.274688 663.48) scale(0.12 -0.12)">
     <use xlink:href="#DejaVuSans-77"/>
     <use xlink:href="#DejaVuSans-72" transform="translate(81.787109 0)"/>
     <use xlink:href="#DejaVuSans-69" transform="translate(122.900391 0)"/>
     <use xlink:href="#DejaVuSans-73" transform="translate(150.683594 0)"/>
     <use xlink:href="#DejaVuSans-74" transform="translate(202.783203 0)"/>
     <use xlink:href="#DejaVuSans-5f" transform="translate(241.992188 0)"/>
     <use xlink:href="#DejaVuSans-66" transform="translate(291.992188 0)"/>
     <use xlink:href="#DejaVuSans-6c" transform="translate(327.197266 0)"/>
     <use xlink:href="#DejaVuSans-65" transform="translate(354.980469 0)"/>
     <use xlink:href="#DejaVuSans-78" transform="translate(414.753906 0)"/>
    </g>
   </g>
   <g id="legend_4">
    <g id="patch_25">
     <path d="M 698.2 682.48 
L 702.2 682.48 
Q 704.2 682.48 704.2 680.48 
L 704.2 676.48 
Q 704.2 674.48 702.2 674.48 
L 698.2 674.48 
Q 696.2 674.48 696.2 676.48 
L 696.2 680.48 
Q 696.2 682.48 698.2 682.48 
z
" style="fill: #ffffff; opacity: 0.8; stroke: #cccccc; stroke-linejoin: miter"/>
    </g>
   </g>
  </g>
  <g id="axes_5">
   <g id="patch_26">
    <path d="M 48.22 1053.92 
L 709.2 1053.92 
L 709.2 883.68 
L 48.22 883.68 
z
" style="fill: #ffffff"/>
   </g>
   <g id="matplotlib.axis_9">
    <g id="xtick_37">
     <g id="line2d_76">
      <g>
       <use xlink:href="#mca38c56f87" x="78.264545" y="1053.92" style="stroke: #000000; stroke-width: 0.8"/>
      </g>
     </g>
     <g id="text_68">
      <!-- 0 -->
      <g transform="translate(75.083295 1068.518438) scale(0.1 -0.1)">
       <use xlink:href="#DejaVuSans-30"/>
      </g>
     </g>
    </g>
    <g id="xtick_38">
     <g id="line2d_77">
      <g>
       <use xlink:href="#mca38c56f87" x="155.301841" y="1053.92" style="stroke: #000000; stroke-width: 0.8"/>
      </g>
     </g>
     <g id="text_69">
      <!-- 5 -->
      <g transform="translate(152.120591 1068.518438) scale(0.1 -0.1)">
       <use xlink:href="#DejaVuSans-35"/>
      </g>
     </g>
    </g>
    <g id="xtick_39">
     <g id="line2d_78">
      <g>
       <use xlink:href="#mca38c56f87" x="232.339138" y="1053.92" style="stroke: #000000; stroke-width: 0.8"/>
      </g>
     </g>
     <g id="text_70">
      <!-- 10 -->
      <g transform="translate(225.976638 1068.518438) scale(0.1 -0.1)">
       <use xlink:href="#DejaVuSans-31"/>
       <use xlink:href="#DejaVuSans-30" transform="translate(63.623047 0)"/>
      </g>
     </g>
    </g>
    <g id="xtick_40">
     <g id="line2d_79">
      <g>
       <use xlink:href="#mca38c56f87" x="309.376434" y="1053.92" style="stroke: #000000; stroke-width: 0.8"/>
      </g>
     </g>
     <g id="text_71">
      <!-- 15 -->
      <g transform="translate(303.013934 1068.518438) scale(0.1 -0.1)">
       <use xlink:href="#DejaVuSans-31"/>
       <use xlink:href="#DejaVuSans-35" transform="translate(63.623047 0)"/>
      </g>
     </g>
    </g>
    <g id="xtick_41">
     <g id="line2d_80">
      <g>
       <use xlink:href="#mca38c56f87" x="386.41373" y="1053.92" style="stroke: #000000; stroke-width: 0.8"/>
      </g>
     </g>
     <g id="text_72">
      <!-- 20 -->
      <g transform="translate(380.05123 1068.518438) scale(0.1 -0.1)">
       <use xlink:href="#DejaVuSans-32"/>
       <use xlink:href="#DejaVuSans-30" transform="translate(63.623047 0)"/>
      </g>
     </g>
    </g>
    <g id="xtick_42">
     <g id="line2d_81">
      <g>
       <use xlink:href="#mca38c56f87" x="463.451026" y="1053.92" style="stroke: #000000; stroke-width: 0.8"/>
      </g>
     </g>
     <g id="text_73">
      <!-- 25 -->
      <g transform="translate(457.088526 1068.518438) scale(0.1 -0.1)">
       <use xlink:href="#DejaVuSans-32"/>
       <use xlink:href="#DejaVuSans-35" transform="translate(63.623047 0)"/>
      </g>
     </g>
    </g>
    <g id="xtick_43">
     <g id="line2d_82">
      <g>
       <use xlink:href="#mca38c56f87" x="540.488322" y="1053.92" style="stroke: #000000; stroke-width: 0.8"/>
      </g>
     </g>
     <g id="text_74">
      <!-- 30 -->
      <g transform="translate(534.125822 1068.518438) scale(0.1 -0.1)">
       <use xlink:href="#DejaVuSans-33"/>
       <use xlink:href="#DejaVuSans-30" transform="translate(63.623047 0)"/>
      </g>
     </g>
    </g>
    <g id="xtick_44">
     <g id="line2d_83">
      <g>
       <use xlink:href="#mca38c56f87" x="617.525618" y="1053.92" style="stroke: #000000; stroke-width: 0.8"/>
      </g>
     </g>
     <g id="text_75">
      <!-- 35 -->
      <g transform="translate(611.163118 1068.518438) scale(0.1 -0.1)">
       <use xlink:href="#DejaVuSans-33"/>
       <use xlink:href="#DejaVuSans-35" transform="translate(63.623047 0)"/>
      </g>
     </g>
    </g>
    <g id="xtick_45">
     <g id="line2d_84">
      <g>
       <use xlink:href="#mca38c56f87" x="694.562914" y="1053.92" style="stroke: #000000; stroke-width: 0.8"/>
      </g>
     </g>
     <g id="text_76">
      <!-- 40 -->
      <g transform="translate(688.200414 1068.518438) scale(0.1 -0.1)">
       <use xlink:href="#DejaVuSans-34"/>
       <use xlink:href="#DejaVuSans-30" transform="translate(63.623047 0)"/>
      </g>
     </g>
    </g>
   </g>
   <g id="matplotlib.axis_10">
    <g id="ytick_25">
     <g id="line2d_85">
      <g>
       <use xlink:href="#m73bb124612" x="48.22" y="1025.936296" style="stroke: #000000; stroke-width: 0.8"/>
      </g>
     </g>
     <g id="text_77">
      <!-- −0.4 -->
      <g transform="translate(16.937187 1029.735515) scale(0.1 -0.1)">
       <use xlink:href="#DejaVuSans-2212"/>
       <use xlink:href="#DejaVuSans-30" transform="translate(83.789062 0)"/>
       <use xlink:href="#DejaVuSans-2e" transform="translate(147.412109 0)"/>
       <use xlink:href="#DejaVuSans-34" transform="translate(179.199219 0)"/>
      </g>
     </g>
    </g>
    <g id="ytick_26">
     <g id="line2d_86">
      <g>
       <use xlink:href="#m73bb124612" x="48.22" y="996.46304" style="stroke: #000000; stroke-width: 0.8"/>
      </g>
     </g>
     <g id="text_78">
      <!-- −0.2 -->
      <g transform="translate(16.937187 1000.262258) scale(0.1 -0.1)">
       <use xlink:href="#DejaVuSans-2212"/>
       <use xlink:href="#DejaVuSans-30" transform="translate(83.789062 0)"/>
       <use xlink:href="#DejaVuSans-2e" transform="translate(147.412109 0)"/>
       <use xlink:href="#DejaVuSans-32" transform="translate(179.199219 0)"/>
      </g>
     </g>
    </g>
    <g id="ytick_27">
     <g id="line2d_87">
      <g>
       <use xlink:href="#m73bb124612" x="48.22" y="966.989783" style="stroke: #000000; stroke-width: 0.8"/>
      </g>
     </g>
     <g id="text_79">
      <!-- 0.0 -->
      <g transform="translate(25.316875 970.789002) scale(0.1 -0.1)">
       <use xlink:href="#DejaVuSans-30"/>
       <use xlink:href="#DejaVuSans-2e" transform="translate(63.623047 0)"/>
       <use xlink:href="#DejaVuSans-30" transform="translate(95.410156 0)"/>
      </g>
     </g>
    </g>
    <g id="ytick_28">
     <g id="line2d_88">
      <g>
       <use xlink:href="#m73bb124612" x="48.22" y="937.516527" style="stroke: #000000; stroke-width: 0.8"/>
      </g>
     </g>
     <g id="text_80">
      <!-- 0.2 -->
      <g transform="translate(25.316875 941.315746) scale(0.1 -0.1)">
       <use xlink:href="#DejaVuSans-30"/>
       <use xlink:href="#DejaVuSans-2e" transform="translate(63.623047 0)"/>
       <use xlink:href="#DejaVuSans-32" transform="translate(95.410156 0)"/>
      </g>
     </g>
    </g>
    <g id="ytick_29">
     <g id="line2d_89">
      <g>
       <use xlink:href="#m73bb124612" x="48.22" y="908.043271" style="stroke: #000000; stroke-width: 0.8"/>
      </g>
     </g>
     <g id="text_81">
      <!-- 0.4 -->
      <g transform="translate(25.316875 911.84249) scale(0.1 -0.1)">
       <use xlink:href="#DejaVuSans-30"/>
       <use xlink:href="#DejaVuSans-2e" transform="translate(63.623047 0)"/>
       <use xlink:href="#DejaVuSans-34" transform="translate(95.410156 0)"/>
      </g>
     </g>
    </g>
   </g>
   <g id="line2d_90">
    <path d="M 78.264545 894.166439 
L 93.672005 897.984921 
L 109.079464 913.745835 
L 124.486923 899.648192 
L 139.894382 901.890675 
L 155.301841 897.971694 
L 170.709301 910.256153 
L 186.11676 929.757617 
L 201.524219 924.381268 
L 216.931678 941.027727 
L 232.339138 960.891005 
L 247.746597 959.102642 
L 263.154056 981.605679 
L 278.561515 993.053444 
L 293.968974 990.858057 
L 309.376434 1000.97557 
L 324.783893 1023.291075 
L 340.191352 1034.855135 
L 355.598811 1042.977969 
L 371.00627 1046.181818 
L 386.41373 1032.220999 
L 401.821189 1043.235351 
L 417.228648 1031.553476 
L 432.636107 1036.86703 
L 448.043566 1031.82865 
L 463.451026 1036.773074 
L 478.858485 1022.9442 
L 494.265944 1007.01411 
L 509.673403 1006.154151 
L 525.080862 992.272323 
L 540.488322 979.778281 
L 555.895781 966.773104 
L 571.30324 946.453635 
L 586.710699 933.760134 
L 602.118159 916.311317 
L 617.525618 929.672084 
L 632.933077 917.832605 
L 648.340536 918.218666 
L 663.747995 899.584544 
L 679.155455 891.418182 
" clip-path="url(#pddc80e833f)" style="fill: none; stroke: #000000; stroke-width: 1.5; stroke-linecap: square"/>
   </g>
   <g id="line2d_91">
    <path d="M 78.264545 915.181325 
L 93.672005 900.790087 
L 109.079464 899.063138 
L 124.486923 897.911839 
L 139.894382 898.487489 
L 155.301841 896.76054 
L 170.709301 900.214437 
L 186.11676 900.502262 
L 201.524219 898.487489 
L 216.931678 901.077912 
L 232.339138 899.926613 
L 247.746597 900.214437 
L 263.154056 901.941386 
L 278.561515 900.502262 
L 293.968974 900.214437 
L 309.376434 901.365736 
L 324.783893 901.941386 
L 340.191352 899.926613 
L 355.598811 901.365736 
L 371.00627 904.243984 
L 386.41373 901.653561 
L 401.821189 904.243984 
L 417.228648 907.122232 
L 432.636107 908.273531 
L 448.043566 909.712655 
L 463.451026 913.166552 
L 478.858485 914.030026 
L 494.265944 918.059573 
L 509.673403 919.498697 
L 525.080862 921.51347 
L 540.488322 923.816068 
L 555.895781 925.543017 
L 571.30324 926.406491 
L 586.710699 929.284739 
L 602.118159 931.299512 
L 617.525618 932.738636 
L 632.933077 936.192533 
L 648.340536 936.768183 
L 663.747995 940.078168 
L 679.155455 941.373379 
" clip-path="url(#pddc80e833f)" style="fill: none; stroke: #ff0000; stroke-width: 1.5; stroke-linecap: square"/>
   </g>
   <g id="line2d_92">
    <path d="M 78.264545 900.7181 
L 93.672005 903.482199 
L 109.079464 914.124469 
L 124.486923 902.093291 
L 139.894382 904.379899 
L 155.301841 900.79808 
L 170.709301 911.447596 
L 186.11676 928.087466 
L 201.524219 923.83306 
L 216.931678 937.475999 
L 232.339138 948.884938 
L 247.746597 944.311497 
L 263.154056 954.358907 
L 278.561515 953.757644 
L 293.968974 948.805697 
L 309.376434 949.043119 
L 324.783893 951.503776 
L 340.191352 948.973866 
L 355.598811 946.48903 
L 371.00627 945.707962 
L 386.41373 937.494991 
L 401.821189 937.264856 
L 417.228648 935.733518 
L 432.636107 934.411552 
L 448.043566 933.891969 
L 463.451026 934.972563 
L 478.858485 934.50788 
L 494.265944 936.086428 
L 509.673403 936.984051 
L 525.080862 937.991438 
L 540.488322 938.423175 
L 555.895781 939.232682 
L 571.30324 939.542993 
L 586.710699 940.941642 
L 602.118159 942.092941 
L 617.525618 943.316196 
L 632.933077 944.539452 
L 648.340536 944.539452 
L 663.747995 946.626181 
L 679.155455 947.129874 
" clip-path="url(#pddc80e833f)" style="fill: none; stroke: #008000; stroke-width: 1.5; stroke-linecap: square"/>
   </g>
   <g id="patch_27">
    <path d="M 48.22 1053.92 
L 48.22 883.68 
" style="fill: none; stroke: #000000; stroke-width: 0.8; stroke-linejoin: miter; stroke-linecap: square"/>
   </g>
   <g id="patch_28">
    <path d="M 709.2 1053.92 
L 709.2 883.68 
" style="fill: none; stroke: #000000; stroke-width: 0.8; stroke-linejoin: miter; stroke-linecap: square"/>
   </g>
   <g id="patch_29">
    <path d="M 48.22 1053.92 
L 709.2 1053.92 
" style="fill: none; stroke: #000000; stroke-width: 0.8; stroke-linejoin: miter; stroke-linecap: square"/>
   </g>
   <g id="patch_30">
    <path d="M 48.22 883.68 
L 709.2 883.68 
" style="fill: none; stroke: #000000; stroke-width: 0.8; stroke-linejoin: miter; stroke-linecap: square"/>
   </g>
   <g id="text_82">
    <!-- wrist_roll -->
    <g transform="translate(351.855313 877.68) scale(0.12 -0.12)">
     <use xlink:href="#DejaVuSans-77"/>
     <use xlink:href="#DejaVuSans-72" transform="translate(81.787109 0)"/>
     <use xlink:href="#DejaVuSans-69" transform="translate(122.900391 0)"/>
     <use xlink:href="#DejaVuSans-73" transform="translate(150.683594 0)"/>
     <use xlink:href="#DejaVuSans-74" transform="translate(202.783203 0)"/>
     <use xlink:href="#DejaVuSans-5f" transform="translate(241.992188 0)"/>
     <use xlink:href="#DejaVuSans-72" transform="translate(291.992188 0)"/>
     <use xlink:href="#DejaVuSans-6f" transform="translate(330.855469 0)"/>
     <use xlink:href="#DejaVuSans-6c" transform="translate(392.037109 0)"/>
     <use xlink:href="#DejaVuSans-6c" transform="translate(419.820312 0)"/>
    </g>
   </g>
   <g id="legend_5">
    <g id="patch_31">
     <path d="M 698.2 896.68 
L 702.2 896.68 
Q 704.2 896.68 704.2 894.68 
L 704.2 890.68 
Q 704.2 888.68 702.2 888.68 
L 698.2 888.68 
Q 696.2 888.68 696.2 890.68 
L 696.2 894.68 
Q 696.2 896.68 698.2 896.68 
z
" style="fill: #ffffff; opacity: 0.8; stroke: #cccccc; stroke-linejoin: miter"/>
    </g>
   </g>
  </g>
  <g id="axes_6">
   <g id="patch_32">
    <path d="M 48.22 1268.12 
L 709.2 1268.12 
L 709.2 1097.88 
L 48.22 1097.88 
z
" style="fill: #ffffff"/>
   </g>
   <g id="matplotlib.axis_11">
    <g id="xtick_46">
     <g id="line2d_93">
      <g>
       <use xlink:href="#mca38c56f87" x="78.264545" y="1268.12" style="stroke: #000000; stroke-width: 0.8"/>
      </g>
     </g>
     <g id="text_83">
      <!-- 0 -->
      <g transform="translate(75.083295 1282.718438) scale(0.1 -0.1)">
       <use xlink:href="#DejaVuSans-30"/>
      </g>
     </g>
    </g>
    <g id="xtick_47">
     <g id="line2d_94">
      <g>
       <use xlink:href="#mca38c56f87" x="155.301841" y="1268.12" style="stroke: #000000; stroke-width: 0.8"/>
      </g>
     </g>
     <g id="text_84">
      <!-- 5 -->
      <g transform="translate(152.120591 1282.718438) scale(0.1 -0.1)">
       <use xlink:href="#DejaVuSans-35"/>
      </g>
     </g>
    </g>
    <g id="xtick_48">
     <g id="line2d_95">
      <g>
       <use xlink:href="#mca38c56f87" x="232.339138" y="1268.12" style="stroke: #000000; stroke-width: 0.8"/>
      </g>
     </g>
     <g id="text_85">
      <!-- 10 -->
      <g transform="translate(225.976638 1282.718438) scale(0.1 -0.1)">
       <use xlink:href="#DejaVuSans-31"/>
       <use xlink:href="#DejaVuSans-30" transform="translate(63.623047 0)"/>
      </g>
     </g>
    </g>
    <g id="xtick_49">
     <g id="line2d_96">
      <g>
       <use xlink:href="#mca38c56f87" x="309.376434" y="1268.12" style="stroke: #000000; stroke-width: 0.8"/>
      </g>
     </g>
     <g id="text_86">
      <!-- 15 -->
      <g transform="translate(303.013934 1282.718438) scale(0.1 -0.1)">
       <use xlink:href="#DejaVuSans-31"/>
       <use xlink:href="#DejaVuSans-35" transform="translate(63.623047 0)"/>
      </g>
     </g>
    </g>
    <g id="xtick_50">
     <g id="line2d_97">
      <g>
       <use xlink:href="#mca38c56f87" x="386.41373" y="1268.12" style="stroke: #000000; stroke-width: 0.8"/>
      </g>
     </g>
     <g id="text_87">
      <!-- 20 -->
      <g transform="translate(380.05123 1282.718438) scale(0.1 -0.1)">
       <use xlink:href="#DejaVuSans-32"/>
       <use xlink:href="#DejaVuSans-30" transform="translate(63.623047 0)"/>
      </g>
     </g>
    </g>
    <g id="xtick_51">
     <g id="line2d_98">
      <g>
       <use xlink:href="#mca38c56f87" x="463.451026" y="1268.12" style="stroke: #000000; stroke-width: 0.8"/>
      </g>
     </g>
     <g id="text_88">
      <!-- 25 -->
      <g transform="translate(457.088526 1282.718438) scale(0.1 -0.1)">
       <use xlink:href="#DejaVuSans-32"/>
       <use xlink:href="#DejaVuSans-35" transform="translate(63.623047 0)"/>
      </g>
     </g>
    </g>
    <g id="xtick_52">
     <g id="line2d_99">
      <g>
       <use xlink:href="#mca38c56f87" x="540.488322" y="1268.12" style="stroke: #000000; stroke-width: 0.8"/>
      </g>
     </g>
     <g id="text_89">
      <!-- 30 -->
      <g transform="translate(534.125822 1282.718438) scale(0.1 -0.1)">
       <use xlink:href="#DejaVuSans-33"/>
       <use xlink:href="#DejaVuSans-30" transform="translate(63.623047 0)"/>
      </g>
     </g>
    </g>
    <g id="xtick_53">
     <g id="line2d_100">
      <g>
       <use xlink:href="#mca38c56f87" x="617.525618" y="1268.12" style="stroke: #000000; stroke-width: 0.8"/>
      </g>
     </g>
     <g id="text_90">
      <!-- 35 -->
      <g transform="translate(611.163118 1282.718438) scale(0.1 -0.1)">
       <use xlink:href="#DejaVuSans-33"/>
       <use xlink:href="#DejaVuSans-35" transform="translate(63.623047 0)"/>
      </g>
     </g>
    </g>
    <g id="xtick_54">
     <g id="line2d_101">
      <g>
       <use xlink:href="#mca38c56f87" x="694.562914" y="1268.12" style="stroke: #000000; stroke-width: 0.8"/>
      </g>
     </g>
     <g id="text_91">
      <!-- 40 -->
      <g transform="translate(688.200414 1282.718438) scale(0.1 -0.1)">
       <use xlink:href="#DejaVuSans-34"/>
       <use xlink:href="#DejaVuSans-30" transform="translate(63.623047 0)"/>
      </g>
     </g>
    </g>
   </g>
   <g id="matplotlib.axis_12">
    <g id="ytick_30">
     <g id="line2d_102">
      <g>
       <use xlink:href="#m73bb124612" x="48.22" y="1244.613622" style="stroke: #000000; stroke-width: 0.8"/>
      </g>
     </g>
     <g id="text_92">
      <!-- −0.6 -->
      <g transform="translate(16.937187 1248.412841) scale(0.1 -0.1)">
       <use xlink:href="#DejaVuSans-2212"/>
       <use xlink:href="#DejaVuSans-30" transform="translate(83.789062 0)"/>
       <use xlink:href="#DejaVuSans-2e" transform="translate(147.412109 0)"/>
       <use xlink:href="#DejaVuSans-36" transform="translate(179.199219 0)"/>
      </g>
     </g>
    </g>
    <g id="ytick_31">
     <g id="line2d_103">
      <g>
       <use xlink:href="#m73bb124612" x="48.22" y="1220.442016" style="stroke: #000000; stroke-width: 0.8"/>
      </g>
     </g>
     <g id="text_93">
      <!-- −0.4 -->
      <g transform="translate(16.937187 1224.241235) scale(0.1 -0.1)">
       <use xlink:href="#DejaVuSans-2212"/>
       <use xlink:href="#DejaVuSans-30" transform="translate(83.789062 0)"/>
       <use xlink:href="#DejaVuSans-2e" transform="translate(147.412109 0)"/>
       <use xlink:href="#DejaVuSans-34" transform="translate(179.199219 0)"/>
      </g>
     </g>
    </g>
    <g id="ytick_32">
     <g id="line2d_104">
      <g>
       <use xlink:href="#m73bb124612" x="48.22" y="1196.27041" style="stroke: #000000; stroke-width: 0.8"/>
      </g>
     </g>
     <g id="text_94">
      <!-- −0.2 -->
      <g transform="translate(16.937187 1200.069629) scale(0.1 -0.1)">
       <use xlink:href="#DejaVuSans-2212"/>
       <use xlink:href="#DejaVuSans-30" transform="translate(83.789062 0)"/>
       <use xlink:href="#DejaVuSans-2e" transform="translate(147.412109 0)"/>
       <use xlink:href="#DejaVuSans-32" transform="translate(179.199219 0)"/>
      </g>
     </g>
    </g>
    <g id="ytick_33">
     <g id="line2d_105">
      <g>
       <use xlink:href="#m73bb124612" x="48.22" y="1172.098805" style="stroke: #000000; stroke-width: 0.8"/>
      </g>
     </g>
     <g id="text_95">
      <!-- 0.0 -->
      <g transform="translate(25.316875 1175.898023) scale(0.1 -0.1)">
       <use xlink:href="#DejaVuSans-30"/>
       <use xlink:href="#DejaVuSans-2e" transform="translate(63.623047 0)"/>
       <use xlink:href="#DejaVuSans-30" transform="translate(95.410156 0)"/>
      </g>
     </g>
    </g>
    <g id="ytick_34">
     <g id="line2d_106">
      <g>
       <use xlink:href="#m73bb124612" x="48.22" y="1147.927199" style="stroke: #000000; stroke-width: 0.8"/>
      </g>
     </g>
     <g id="text_96">
      <!-- 0.2 -->
      <g transform="translate(25.316875 1151.726418) scale(0.1 -0.1)">
       <use xlink:href="#DejaVuSans-30"/>
       <use xlink:href="#DejaVuSans-2e" transform="translate(63.623047 0)"/>
       <use xlink:href="#DejaVuSans-32" transform="translate(95.410156 0)"/>
      </g>
     </g>
    </g>
    <g id="ytick_35">
     <g id="line2d_107">
      <g>
       <use xlink:href="#m73bb124612" x="48.22" y="1123.755593" style="stroke: #000000; stroke-width: 0.8"/>
      </g>
     </g>
     <g id="text_97">
      <!-- 0.4 -->
      <g transform="translate(25.316875 1127.554812) scale(0.1 -0.1)">
       <use xlink:href="#DejaVuSans-30"/>
       <use xlink:href="#DejaVuSans-2e" transform="translate(63.623047 0)"/>
       <use xlink:href="#DejaVuSans-34" transform="translate(95.410156 0)"/>
      </g>
     </g>
    </g>
    <g id="ytick_36">
     <g id="line2d_108">
      <g>
       <use xlink:href="#m73bb124612" x="48.22" y="1099.583987" style="stroke: #000000; stroke-width: 0.8"/>
      </g>
     </g>
     <g id="text_98">
      <!-- 0.6 -->
      <g transform="translate(25.316875 1103.383206) scale(0.1 -0.1)">
       <use xlink:href="#DejaVuSans-30"/>
       <use xlink:href="#DejaVuSans-2e" transform="translate(63.623047 0)"/>
       <use xlink:href="#DejaVuSans-36" transform="translate(95.410156 0)"/>
      </g>
     </g>
    </g>
   </g>
   <g id="line2d_109">
    <path d="M 78.264545 1108.039902 
L 93.672005 1116.639047 
L 109.079464 1110.987363 
L 124.486923 1116.618124 
L 139.894382 1117.640277 
L 155.301841 1134.683572 
L 170.709301 1135.041324 
L 186.11676 1158.078027 
L 201.524219 1161.032869 
L 216.931678 1182.544001 
L 232.339138 1188.839523 
L 247.746597 1179.230383 
L 263.154056 1200.305106 
L 278.561515 1202.381762 
L 293.968974 1220.439611 
L 309.376434 1223.153023 
L 324.783893 1212.25844 
L 340.191352 1247.759328 
L 355.598811 1236.29962 
L 371.00627 1231.181784 
L 386.41373 1233.844266 
L 401.821189 1233.010993 
L 417.228648 1241.100967 
L 432.636107 1215.935262 
L 448.043566 1214.363581 
L 463.451026 1212.697958 
L 478.858485 1205.356241 
L 494.265944 1193.421646 
L 509.673403 1183.873851 
L 525.080862 1167.573909 
L 540.488322 1149.364907 
L 555.895781 1156.952838 
L 571.30324 1136.500849 
L 586.710699 1147.373345 
L 602.118159 1125.075199 
L 617.525618 1111.046661 
L 632.933077 1114.006768 
L 648.340536 1109.19897 
L 663.747995 1105.618182 
L 679.155455 1118.366131 
" clip-path="url(#ped3225211a)" style="fill: none; stroke: #000000; stroke-width: 1.5; stroke-linecap: square"/>
   </g>
   <g id="line2d_110">
    <path d="M 78.264545 1242.441954 
L 93.672005 1253.772395 
L 109.079464 1254.244496 
L 124.486923 1256.605005 
L 139.894382 1257.549208 
L 155.301841 1260.381818 
L 170.709301 1260.381818 
L 186.11676 1258.493411 
L 201.524219 1259.437615 
L 216.931678 1258.965513 
L 232.339138 1257.077106 
L 247.746597 1256.132903 
L 263.154056 1253.772395 
L 278.561515 1253.300293 
L 293.968974 1253.300293 
L 309.376434 1249.995581 
L 324.783893 1247.635073 
L 340.191352 1247.635073 
L 355.598811 1245.274565 
L 371.00627 1241.969853 
L 386.41373 1243.386158 
L 401.821189 1241.025649 
L 417.228648 1241.969853 
L 432.636107 1237.248836 
L 448.043566 1238.193039 
L 463.451026 1234.416226 
L 478.858485 1233.472023 
L 494.265944 1232.055718 
L 509.673403 1227.570752 
L 525.080862 1227.334701 
L 540.488322 1227.334701 
L 555.895781 1228.278904 
L 571.30324 1224.502091 
L 586.710699 1224.029989 
L 602.118159 1224.029989 
L 617.525618 1218.128718 
L 632.933077 1213.879803 
L 648.340536 1213.17165 
L 663.747995 1209.158786 
L 679.155455 1212.699549 
" clip-path="url(#ped3225211a)" style="fill: none; stroke: #ff0000; stroke-width: 1.5; stroke-linecap: square"/>
   </g>
   <g id="line2d_111">
    <path d="M 78.264545 1124.482111 
L 93.672005 1129.593265 
L 109.079464 1123.019911 
L 124.486923 1128.288423 
L 139.894382 1129.428517 
L 155.301841 1144.518355 
L 170.709301 1145.802087 
L 186.11676 1166.656932 
L 201.524219 1170.58087 
L 216.931678 1187.425717 
L 232.339138 1195.544062 
L 247.746597 1194.048586 
L 263.154056 1211.621295 
L 278.561515 1217.254319 
L 293.968974 1228.161336 
L 309.376434 1229.364437 
L 324.783893 1227.963044 
L 340.191352 1237.61482 
L 355.598811 1237.067584 
L 371.00627 1233.299725 
L 386.41373 1237.196018 
L 401.821189 1236.322174 
L 417.228648 1236.634072 
L 432.636107 1231.639257 
L 448.043566 1233.959526 
L 463.451026 1229.97266 
L 478.858485 1230.717267 
L 494.265944 1229.733454 
L 509.673403 1224.387754 
L 525.080862 1223.115292 
L 540.488322 1222.613684 
L 555.895781 1223.675913 
L 571.30324 1220.13515 
L 586.710699 1217.420566 
L 602.118159 1217.656616 
L 617.525618 1210.669143 
L 632.933077 1204.319744 
L 648.340536 1203.965668 
L 663.747995 1197.238219 
L 679.155455 1201.022409 
" clip-path="url(#ped3225211a)" style="fill: none; stroke: #008000; stroke-width: 1.5; stroke-linecap: square"/>
   </g>
   <g id="patch_33">
    <path d="M 48.22 1268.12 
L 48.22 1097.88 
" style="fill: none; stroke: #000000; stroke-width: 0.8; stroke-linejoin: miter; stroke-linecap: square"/>
   </g>
   <g id="patch_34">
    <path d="M 709.2 1268.12 
L 709.2 1097.88 
" style="fill: none; stroke: #000000; stroke-width: 0.8; stroke-linejoin: miter; stroke-linecap: square"/>
   </g>
   <g id="patch_35">
    <path d="M 48.22 1268.12 
L 709.2 1268.12 
" style="fill: none; stroke: #000000; stroke-width: 0.8; stroke-linejoin: miter; stroke-linecap: square"/>
   </g>
   <g id="patch_36">
    <path d="M 48.22 1097.88 
L 709.2 1097.88 
" style="fill: none; stroke: #000000; stroke-width: 0.8; stroke-linejoin: miter; stroke-linecap: square"/>
   </g>
   <g id="text_99">
    <!-- gripper -->
    <g transform="translate(356.990938 1091.88) scale(0.12 -0.12)">
     <use xlink:href="#DejaVuSans-67"/>
     <use xlink:href="#DejaVuSans-72" transform="translate(63.476562 0)"/>
     <use xlink:href="#DejaVuSans-69" transform="translate(104.589844 0)"/>
     <use xlink:href="#DejaVuSans-70" transform="translate(132.373047 0)"/>
     <use xlink:href="#DejaVuSans-70" transform="translate(195.849609 0)"/>
     <use xlink:href="#DejaVuSans-65" transform="translate(259.326172 0)"/>
     <use xlink:href="#DejaVuSans-72" transform="translate(320.849609 0)"/>
    </g>
   </g>
   <g id="legend_6">
    <g id="patch_37">
     <path d="M 698.2 1110.88 
L 702.2 1110.88 
Q 704.2 1110.88 704.2 1108.88 
L 704.2 1104.88 
Q 704.2 1102.88 702.2 1102.88 
L 698.2 1102.88 
Q 696.2 1102.88 696.2 1104.88 
L 696.2 1108.88 
Q 696.2 1110.88 698.2 1110.88 
z
" style="fill: #ffffff; opacity: 0.8; stroke: #cccccc; stroke-linejoin: miter"/>
    </g>
   </g>
  </g>
 </g>
 <defs>
  <clipPath id="p4f0969375c">
   <rect x="48.22" y="26.88" width="660.98" height="170.24"/>
  </clipPath>
  <clipPath id="p0c5a648f66">
   <rect x="48.22" y="241.08" width="660.98" height="170.24"/>
  </clipPath>
  <clipPath id="p3e9fe19bae">
   <rect x="48.22" y="455.28" width="660.98" height="170.24"/>
  </clipPath>
  <clipPath id="pd5dc5470b0">
   <rect x="48.22" y="669.48" width="660.98" height="170.24"/>
  </clipPath>
  <clipPath id="pddc80e833f">
   <rect x="48.22" y="883.68" width="660.98" height="170.24"/>
  </clipPath>
  <clipPath id="ped3225211a">
   <rect x="48.22" y="1097.88" width="660.98" height="170.24"/>
  </clipPath>
 </defs>
</svg>
